<mxfile host="Electron" agent="Mozilla/5.0 (Windows NT 10.0; Win64; x64) AppleWebKit/537.36 (KHTML, like Gecko) draw.io/24.7.5 Chrome/126.0.6478.183 Electron/31.3.0 Safari/537.36" version="24.7.5">
  <diagram name="第 1 页" id="cxqdecc1twB9NVDHQBq0">
    <mxGraphModel dx="888" dy="1282" grid="1" gridSize="10" guides="1" tooltips="1" connect="1" arrows="1" fold="1" page="1" pageScale="1" pageWidth="827" pageHeight="1169" math="0" shadow="0">
      <root>
        <mxCell id="0" />
        <mxCell id="1" parent="0" />
        <mxCell id="F5iI7IxURP_fGUeo5Xdc-1" value="" style="shape=image;verticalLabelPosition=bottom;labelBackgroundColor=default;verticalAlign=top;aspect=fixed;imageAspect=0;image=data:image/png,iVBORw0KGgoAAAANSUhEUgAAAigAAAISCAIAAABpjqMZAAAgAElEQVR4Ae29vbKlsHL+zWU4dKIqh74Agn94UjKHU0XiCyB3RDk8CVW+AIITulbkkBtYuYvoZJwLWIFD3ndGM721uwUIfSxY0rODGWAJgX5q9dP6AKoVfyAAAiAAAiDwRgLVG6+FS4EACIAACIDACuGBEYAACIAACLyVAITnrbhxMRAAARAAAQgPbAAEQAAEQOCtBCA8b8WNi4EACIAACEB4YAMgAAIgAAJvJQDheStuXAwEQAAEQADCAxsAARAAARB4KwEIz1tx42IgAAIgAAIQHtgACIAACIDAWwlAeN6KGxcDARAAARCA8MAGQAAEQAAE3koAwvNW3LgYCIAACIAAhAc2AAIgAAIg8FYCEJ634sbFQAAEQAAEIDywARAAARAAgbcSgPC8FTcuBgIgAAIgAOGBDYAACIAACLyVAITnrbhxMRAAARAAAR/h+X+x//7rv/7r//7v/1AZIAACIAACKQj8/e9///d///e4nvs///M/vW/VR3iqBH9/+9vfvMuAE0EABEAABHYI/OUvf4nutn/8+LFzxf2f7iI8f/3rX/dvFL+CAAiAAAj4EfjXf/1XCA8n8G//9m//+Mc//IDiLBAAARAAgX0C//M///Mv//Iv3POG7V/W4wm58D6mwF+fz2ff9/X3v67rxnEMzDnv08dxrOu6aZq8i3m2dNM0SXNqmqbv+2mazuaWd/ppmrquq7//AZSs9A8F9fe//53UKsT/Bw21hVxY1kSUI33fK6UIjdxQSjVNA38haXddR7iez6dMUNqRZVnatt03p6qqtEUVHtO4sFJKtW27LEtphmSW99NBQXjM2vy5PQwD8xFKqfrPH/upqiq0ASK4LEvTNKQ6VVVBeA4jGBOX3q7r+vF4ENVyNrquY+1rp+kppfq+LweOWdIMQEF4zApdmd9USg3D8C3Fuk7TJJMV3vVZlkU2hsKFZ1mWuq5NXVFKdV2nx4vGcez7vmka5mopfdu2zPAy3n0+n4xVXdey86eHcAlRVVV1XRfV9ckGFITnqzkz02/b9vV6ff38fWscR+YyZDv5fkaGezQHxlCQayi2x/N8Pk0mO6OyesyEiJkbdV1naDSiSIxVVVX7XRlzLFcPURZiZjmBgvD8bgdSdUQD4QekHeTd72nbtv7zp379mV7Sul2IR2CW8Xq9TNWRnWaWfl3Xx+NhnkIws9eeZVlYwV0CuHEcCZHWnp0YUdL+xCOZgYLw/DRCFkO5t/aiGgDTZtbyrb+WKTw0EquUcp+tmabJRErbeY+5MbPpus5RFdq2JURVVWW/hDIzUBCedZ5nM+ZSSs3z7Gj968qnhTJ2E8z0daenruthGJZleT6fpiPQ2wUKzzAMxMEleDctre97OtfccOkzmfl8yrbJSk/YnLpzs9lWVXWW9qlrXZs4P1AQnlDlkIFqrgNuwzD0v/7GcXw+n2xSF8KjfRN5w/2Jii1HxtRdy49Saiv9Rx8nVrqYZ5WD6XSulNZ1zQ9U6cITRTaYWWTf67c6OwiPXosfKBVs8Jb6PX4yZq2pmxwMlw057ZEfpXVdswRVuvDQcHyIv2DDzUop1hu4SVNPehsQnnVdqb/Stq33MCOLY0IsM2mNB2bOiuk+sWpel2WSZaeHlTEPUEULj4yY/AyXjcDqp0rN5lHCNoTHak4eMTgLhqjTk9MQruzY+U2OSlZnx+tu3jZzBVW08LDFbN5rY6TP9ROwm7eB/duTEEp7gFQO22rNOOtSZRyj8/HQsP0qu/BX6hqSrPotoGDDUN5N+EIU+5fOFVTRwiMr1btts+5wVVU5xaf7bUP/CuGRTpC86ql1klaSHou+XGrtqjSyvfiNTEpWmcV8uYIqV3jkwEjIikxpH+5PJFzV+ONeV7qA0no8O8JzKqCxksxJeOTwkfe0qJVVNjFfxqDKFR7rwIhf2GXOKlOQ6zcHGFcM3pmb1QV483znnce6VizhkctntVFlE8vLIe6QosmY75TMx6r9FPlkDKpc4bG6CW9HKUftQtpSCiNOnSeEZ2tupqqqsxMY0pnqF8OkrsT35B+3sUhW2cR8GYMqV3hkpVZVdWos3mylMjfv0QMz2w/ahvBYB2+1YJxaXj/PM/WbzY1sQhkpFSFFi5vbrVpc3KLFzS0QFITnq2mHWL8UntJmOCA867rKd5Yrpc4u8LWSzGmOR3rAkD6KzC2kIQf607iny6JlA6pc4ZGVGmKv1oG7sx4nrtW+OTeru/QeunzzzUe83DzP+nuj+kOZHn3orSG7PJarWO0kxJ/KmC+PwYa8QUF44vR4rMKTzSSni1+2tpMChceF1X4a9iIMMtA8FmtZ7SSu8OQx2JA3qEKFxzocH73HA+GB8OxrjPVX2RfPaWWBXCIcOIooezx5CE/eoAoVHms0EV14inpbqBUphMcqLTsHrav8c3oJk3VsIHqP5+wywp0aueqnvEFBeGgko4ouPCHN6Spz974uhMcbnXmifPmYx7o4M8O7bb/Hn2Yw2JA3KAgPhCeOa4LwhHO0jgBXVZWBGyU4eftTKmb4Rt6gIDwQnvA28jMHCE84R+uygsz6zXn703AboBzyBlWo8FgrFUNtZPQeGxAeD2jmKdbZHaVUZvNk1rUAIeJqzTCDPqK1XNmAgvCgx2N6P/9tCI8/u19nWh1NBpPkDIu1mNn4U1bYkN28QUF4IDwhrePrXAjPF4vzW9Yu+NkP+Zy/7AVn5O1PIwLNGxSEB8ITp7FAeLw5WgfZslQd63vcUzzHg6E2aY1WJbsKVKHCY304C3M80ljdj0B43FmZKV+vl3xiNFfVWdc1+gKKW/lTs2YDt/MGVajwWL0khCekqViRZjYxHsJn61z54E7GqrOuq3VQEXM80jzyBgXhwVCbtHmfIxAeD2oyqs1bdSA87kYC4XFhVbkkYmnI5f/48YP9lHrX6iXR4wnBbkWKHs8OUvkW6jzeP71TZAjPPhzzVwiPSWNrG8LTk47SRgl+hAwCwkMoXDbkLGMhH9F4jz/N4E3eeYMqdKjN+ln7kB6P/Dp6Zm86OXSmEJ5DRJTg+XyaCwqUUhk4Sird/obVTqLP8WTQ1c4bFISH+idBLwnNdWnNvhMxf7W2kwzav1nGKNvzPDPVKYqS1U5ChMeESY05A6R5g4LwkK3+3PD4XqR2RlbhycD63V2ttZ0URcCRlWkqdV0vy+J4Yh7JrC9CDRlskMITktt9IOcNqlzhMds/iY+3o4yb232s3/1OIDwurEw7CQnzXa512zRxpSJubreCFrdocXMLBFWu8FhnZSIKTx5hl7t5QXgOWZmLp0+pzjAM/a+/w0t8RAJTfXXMF9JYpD89xfbOxDIGVa7wyMWsVVV5z/FK6w9pS3duDFv3BuHZIqOPe6sOLYTJxp/KZ2a9G4vV6rJ5FipjUOUKzzzPNMJGG95vLpLCk4317/tT+tXqArx7kJRtHhvm0lgP/dDWlc2X1K0xn5+pWK0um4XpGYMqV3gokCTVqarK78kbq4ZlY/2Ort/qAvy8ieMVPyWZ+ciOh+oQWO+o6G6grO3Fb7BBumalVDbrNTIGVbTwmKMfWn48/MK6rvLtwt5DB3fzEe73Q/7RFHIIT6DqmI/6+7lm9xp8Z0o5QuAnq3Km1q8Jv7Psp66VK6iihSeWYJgDKdrtZjMq4t5IIDySlfmgqLdJ0Ayz91p/eWOXH5FNxk8wCA6FO5l9Oi9XUEULj/XrIB7NW1p/TsGpo5OC8DBQpuqETPjpmDezPrR8SMWvgKxD4JcJq7hb7eYKqnThMUdCdNDkETEx6/eL3W5l7h43A+Fh0CgcCVEdss/8XKoc6D4b80mTC0HNqu8+u1mCKl14ZKfnrGyQa6DO/uPxuI/Vvu1OpBeoqqrYOR5SHf15zfrknzL+tF2dNcu31bv3hWQsf3ZpD/PIOS0rMKlmCQrCsz4eD9IMvXFqoMx0MVVVeQ/lm6b2idtywqxY4WEmwazLb9dv7v3mhsSWBpzq1Ul3nCUiXYP5gYLw/KxZFjq5R5dsNWeuMZeL/2IMtXvN2BdsMbFy8BMb86xcV+czkXYfK2Oc3dvsVsXd/HhmoCA8v+3No17N2WPtI3L1Dltt8vnrbxgG5gVMj9m27TAMOuVWPtkc3+FgMvHYznXQ0q8RyYDv7PzQx5lcZqAgPL8tUNbrfvD1eDzYmoLso3uNyJh9UGcdqHmuUiozZyrHbM/y2Up/agzq41yqnCXdX+DDVhiX8zWjnEBBeL7a6bIsrN9T17XsxCzLwgJbpZRM9pVvLlvW5QNbvtLleGbCwxyiCwHHNHkLj34Em4VxTdPIqdZpmtjry/ILX/a9xTRNeYCC8PCK7vueVa1Sqjb+2K91XWffzdeMZI+H9WDO7kJ4HIUn+wmMdV1lPFdVP7/NSC2Ptbuqqtq2fb1e2jjL+TcPUBAei8XqqpWGbroJpVTTNCV0dCyAcMhG4PV66ams6P8WEtnork/TNIdNr21b2R+y1Um2x3Tn73NBQXj2THOapr7v6+9/erY8mxcR7pUfv4HARQTGcey6rv7+13UdQj1WIR8KCsLD6hG7IAACIAACaQlAeNLyRe4gAAIgAAKMAISHAcEuCIAACIBAWgIQnrR8kTsIgAAIgAAjAOFhQLALAiAAAiCQlgCEJy1f5A4CIAACIMAIQHgYEOyCAAiAAAikJQDhScsXuYMACIAACDACEB4GBLsgAAIgAAJpCUB40vJF7iAAAiAAAowAhIcBwS4IgAAIgEBaAhCetHyROwiAAAiAACMA4WFAsAsCIAACIJCWAIQnLV/kDgIgAAIgwAhAeBgQ7IIACIAACKQlAOFJyxe5gwAIgAAIMAIQHgYEuyAAAiAAAmkJQHjS8kXuIAACIAACjACEhwHBLgiAAAiAQFoCEJ60fJE7CIAACIAAIwDhYUCwCwIgAAIgkJYAhCctX+QOAiAAAiDACEB4GBDsggAIgAAIpCUA4UnLF7mDAAiAAAgwAhAeBgS7IAACIAACaQlAeNLyRe4gAAIgAAKMAISHAcEuCIAACIBAWgIQnrR8kTsIgAAIgAAjAOFhQLALAiAAAiCQlgCEJy1f5A4CIAACIMAIQHgYEOyCAAiAAAikJQDhScsXuYMACIAACDACEB4GBLsgAAIgAAJpCUB40vJF7iAAAiAAAowAhIcBwS4IgAAIgEBaAhCetHyROwiAAAiAACMA4WFAsAsCIAACIJCWAIQnLV/kDgIgAAIgwAhAeBgQ7IIACIAACKQlAOFJyxe5gwAIgAAIMAIQHgYEuyAAAiAAAmkJQHjS8kXuIAACIAACjACEhwHBLgiAAAiAQFoCEJ60fJE7CIAACIAAIwDhYUCwCwIgAAIgkJYAhCctX+QOAiAAAiDACEB4GBDsggAIgAAIpCUA4UnLF7mDAAiAAAgwAhAeBgS7IAACIAACaQlAeNLyRe4gAAIgAAKMAISHAcEuCIAACIBAWgIQnrR8kTsIgEAKAsuy9L/+UmSOPFMTgPCcIDzPc9/3wzCcOKeYpM/nUzsC+neapmVZigHAC9r3/TRN/OiZfe1bH4/HmZNKSVvXdfXrr+/7Usq8Uc5pmqjR6Y3n87mR9i6HITyuNfF4PJRS2tbvX6+upQpON01T0zRERvOhf5VSdV0XKNXDMGgISqm+7+d5PkV6HEeiWtf1qXNLSNx1HdlYscIzjmNd1ztNr2macRzvaQ8QHqd66fueDL2qKgjPuq7zPDdNY2Kpqkr9+ZPHi5IfZjCaTNu2wzA8n0/ZEXw+n9M0dV0nXUnXdU42WkyiaZpM6ypQeB6PB3X4CMWflvc7OKbjdV0H9rxTWBaE54DqNE2yjiE8fd+zUKtpGtO+n89n13UsTV3Xr9frgHgWP0vhIUdgyvOWs6DE6O5Ic2DtsTThaduWzIMCGtMjTdPUti1rem3bSpIXHoHw2OFb/SbVt1nN9vOzPspMfz+kYomVUiXQ2xceMqT9DaiObEYSbFHCw0S3aRrZe9bQlmVhiW9lThCedRgGmpqrf/2xYEF6hxJcp2zz+ggTEhdrHsfRZKiU2motWxf9uOPSP5oEXLZdwH4clsAbnudZts1yhIcJiUsnxqO1BtaR4+kQnpVVJ3MK0tBLnuOREuI4dGbOBldVlb1XDRQeF5/i2MJzSmZtqoUID5OQpmkca5ZBu8mUIYTHLjxKKb0m5Pl8MikqVnherxeT4VMrfVkDyNtfeAtPXdenqDp6nwySbSHN25B0xbH1FKfGDJZlYc3WnIu9yjAgPGvbtvWvv7Zt+74fx9Fc/ArhIdP0jrl0DrK3lPGA25aXlEEMHdELr4k2NkwC1kE2ja4E4QkM2ljLvcN4A4THNG/LNoRHQ5Fxk8cjAizyynhAiYRHd5316jXSGNrQx9u2vUMQarH+2xxinpcAVlWVvfCER2zzPJvEqqryaLxxbQHCc8ATwqMBsaDpVGefELPnfpRS9FNmGyQ8ZnT5FH+ZlTpRcehpXHqo1nSj2QsPE12/VsNiPtMsE9XafrYQnn0+K4RHA2KG62f95I7JceTqNaikl7fwA/u+/c/U1VZKyVnG7Hs8bHanqir3ZQVm3TL1qqrq2k42hMesHcs2hGddf644J6nQG37+VML0EzBLPd3sEIQnVoVQL1mvuWABUPbCQ8WnBugXq5FBUj7XDnRDeA4aiPSVBa5qk+GSn/Wv6yodh7mU46AyPudnaud+Cv05BU17pxTxkJeU9uNtimlvPVLusrx+DxHKntO1MR+E58BAIDxWtfB+8ZpsSFk6DgjPQbty+NkcZKMFkIXYj8Yj1aKqKr9A7W5+DMJz0ALuVmEHt5vg57gEZOcpyz4BhCfcEmmUyYxyihIesiIaHwvpptwKHYTnoIHEdbsHF7vlz9L6QwYbpfCEtKVbAvt5UwQtS1l9A/bH46G9LZtLv5X3TM0hbmOR6Bjb1MUx84fwmDQs2xAeCjwp7ILwWAzl+yEIz3ce5/Zo9ZpctS+9Z5ZDtZqXLGxIlCZzuzAqgvAcNAkIT9ywS+YWImMHlXfdzxCeEPb00Jg5yKYzlN6zKOEJkQqJLkTGQup3XVcIzwFACE9ce2VvC9W9qGsfKTiwAK+fITxe2H6etDXIpjOU1pir8MjXDQS+XVfGfBCeH95mmvpECI9s6iH2Sh7ZHLjLz3dQMVmIOs9z3/dN0+gvjepX5tR1jbfm6Ia8M8hWmvBYPQ8zp1PeTwrPhYMN6PEc1J21+v2W0h9c6a4/Q3g8akYKzziO1pZvCjDeE0qDbFuxiLTGrZQetXarU6xrqSE8rI4qtu+yS03uxw/0eFyAXZDGqrvRezz0eOAFJUxzSVN4lmVhCzSUUnVdN03T973u+lBb0MMpZX4ZgVztjnstR3jIhJhteBusNe656m2h6PEc1KPV85bT47EWP7rw7Diag+q568/kNcz3Uiuluq6zPgBI6cnL3OSDXe8ErD2jUsqKSN8JhMe7RqzCc1V/EcJzUI9WzwvhOaC2/bP0sIFTptuXuvIXWcy2bfe/1srefl9VVX4dwZ0qoVUn+64QwrPDcP8nCM9vPhTcYaht32Iu/NWqu+jxHNYIEx7HAQ12Vjna4zLIpplDeA5tbysBhOc3GQjPlonc5zi9pZEqq6oqCM9hBZkSIh9G2TldeodTp+/kfOefdKn3B9n0/ZcjPGxeUDfAkEFpaVoXvtsbQ20H7dEa8pcz1GY6UNIeCM+B0RivzDk7XCYH3OTT+4dX/6wENMjmMq1VjvBYdQLCw2wbq9oYkEx2ITx+FTnPc/3rj16r7J6P9K1n1cv9WpennOdZl9fRpUo4+3NClxfQ+wYgPC7oIDwulD4vDYTn/XVGPQCzi+khYO+/c48rknt1fHsFhMcDsj6FUJNdYagNz/F4m1PaEzHHk5avLXeaaTcdhMswlC2zWx+jsMa9dOUID+Z4XGwXPR4XSp+XxjrFhTmepBUZnXnSu/XO/Owgm75QOcJDqmzGH44DktZKQY/nNxYCiuXUVkO5w8HoTjB6c7oDpej3IN2r96cno99brAzJDzoOsunrSjK5zvFEbykEnBwvhtow1BarOUfOB8ITGahbdtK9VlWV07pq8qpn101IMhAeN5taITy/QZHwosfjaDrvT/Ye4Tnrfd7P4c1XlO41p4dJl2XRBVRK7b/NQWKXZCA8kpL1iFV4HB9ttmYYchDP8RzQs3recp7jWddVNvXoczy5+o4D29r+WTLP6cVCNG3u8S5USSZX47GuMYk+x3OVK4PwbLf+X79AeGRTDxEea9iVme+Ypqnv+2EYvNdAS+aBL4w4sPI3/kzrJP26uZJMZsZDVWH1PCHCI9HhezyY4yF7u92GtNeQZ+mtwnNqevl2gIwb0s+N0hiy9/d1JPM8hCdkkE1jlmRyFR7rF0hDYj6JLiQ3w+p9NtHjOaBmjTuu6p8e3Guan61S4U0gbm5pSuyfq2zbVVV5DKNb87nQTfgT+X4mrSnQOqq/GXHqXxJ12tg6PQNBkmYQYgNxc/tesaf3IDwHyCA89FFIauohPXQpPCFt6aDy3vszDSKZoPzmZqSP8MvnvQCOr2YKD6MUfRfCw+pDGlXIwB3L/OwuhOeAGITH6iy8ezzS+rMRHisovyEySQnCc1aZMhCeiFGadeCuaZoD95fsZwjPAVoIj5WAd6uWLvVC6z+o+5M/pxYe9/fKnLzx9yV/vV7PgD/56u6qqrqus2Z5dqH2+yg4X8lqUX4xn7UVX/hkGITnwAqsFeZX9wdXuvHPUi38hIfmls3o9ULrj4vc6iaqqjqrrFaT85srilvAy3OzkvEzxcvL4nID1vL6OR+rZu98Ytzl9kLSQHgO6EWs+4Mr3fhnevCCBMNvdFjCDFkgdzdg1rbt8nEzVhBJSY/XeS/OZvl/7q6VTMbCY32Kzq+8Miq6dogbwnPQDK227hd0HFzpxj9Ll+pntdL6/QTsnqjMYXS91KppGo+gUlLy6DbdE1HgXVkbo58jDryTt50ul/ac7UDrW5XTRdeO3EJ4DkzIauulCY+MvPx6KrLn5LHU+KDCLv1Zj0l6vAnGvGtJCeNsmo+1MeYtPGY0o8cb/GI+Nlru135NKw3chvAcALTaeoHCI8NwD82Q1n9A/9N+pm+4hXhDRimP9WxRatLaGENQR7mr1JmwQMRDM6R6+XWbIpYUwnMA02rrBQqP7PSctV357qn8XAatnvDu9EiBr6oqmzc7HDS2o5+tjTE/K2IYZMM5ux5HGtXlFgXhYbXMd622XqbwMPM9G3mx0eqcZndMo6FieryL7PV6ye6ORz7m/eS0bW2M2QvPuq6s03O27TCjuoNFQXgOGiYNntCCrpIH3NkUpbsFy6jt8pjroOJ9fzbFw52PvhqJFhnbWRfje9efcR4LfTSls5A/o6jf75J60mQY7p0eBs27L/79jkL3IDybBOd5HseRBQu64pVS4zh6LFjavNiH/ECfKz7VAExfrE+8dkVNatiPx4P4uLtFqToeS7FTF+3C/B+Px05jvPDG3nNptrJUKeUy7iIDPo9PUaQoIIRn1W8Uro0/vRaWfMfOhk5pnPpzM29BYg3gsP+3LIt3P2n92D+TUl3X+927ZVnYWIpeUODiWT6W0N6Nsybp0h5lS8yvGbLQ5FB7pmliUu3eT9qrnhi/QXhW68Dxjtgc/pS9v5CxZ9u21scbZZfRvQcQw7yvzMPUHv0gjlwHOM9z13XMO+CpnShNMstmKMfNtqa4WMrDAPHNTQXCA+HxMbl5nlmQrpRqmqb/8yf9qVLqPgGXT5nPnzNNE+vtmYG51Bv9hoLSKEmuEB7JhI48Hg9pVG3b/ml5fdu2zLQO+9yU+ds2IDw/UVtfMuh98G2Vd/mFxnFkbcDaHVRKbXWJLi/CG26g73vmCLYobUWvb7jJu13Cu/XRiXcrUdz7+XSjgvDEtYcSc9PjRXVd63De/LdpGjm+VCKjdR3HsWkaEw71frqu258EKpMYSn1IYJqmtm1l06vrum3bOxsVhOewcpEABEAABEAgJgEIT0yayAsEQAAEQOCQAITnEBESgAAIgAAIxCQA4YlJE3mBAAiAAAgcEoDwHCJCAhAAARAAgZgEIDwxaSIvEAABEACBQwIQnkNESAACIAACIBCTAIQnJk3kBQIgAAIgcEgAwnOICAlAAARAAARiEoDwxKSJvEAABEAABA4JQHgOESEBCIAACIBATAIQnpg0kRcIgAAIgMAhAQjPISIkAAEQAAEQiEkAwhOTJvICARAAARA4JADhOUSEBCAAAiAAAjEJQHhi0kReIAACIAAChwQgPIeIkAAEQAAEQCAmAQhPTJrICwRAAARA4JAAhOcQERKAAAiAAAjEJADhiUkTeYEACIAACBwSgPAcIkICEAABEACBmAQgPDFpIi8QAAEQAIFDAhCeQ0RIAAIgAAIgEJMAhCcmTeQFAiAAAiBwSADCc4gICUAABEAABGISgPDEpIm8QAAEQAAEDglAeA4RIQEIgAAIgEBMAhCemDSRFwiAAAiAwCEBCM8hIiQAARAAARCISQDCE5Mm8gIBEAABEDgkAOE5RIQEIAACIAACMQlAeGLSRF4gAAIgAAKHBCA8h4iQAARAAARAICYBCE9MmsgLBEAABEDgkACE5xAREoAACIAACMQkAOGJSRN5gQAIgAAIHBKA8BwiQgIQAAEQAIGYBCA8MWkiLxAAARAAgUMCEJ5DREgAAiAAAiAQkwCEJyZN5AUCIAACIHBIAMJziAgJQAAEQAAEYhKA8MSkibxAAARAAAQOCUB4DhEhAQiAAAiAQEwCEJ6YNJEXCIAACIDAIQEIzyEiJAABEAABEIhJAMITkybyAgEQAAEQOCQA4TlEhAQgAAIgAAIxCUB4YtJEXiAAAiAAAocEIDyHiJAABEAABEAgJgEIT0yayAsEQAAEQOCQAITnEBESgAAIgAAIxCQA4YlJE3mBAAiAAAgcEoDwHCJCAhAAARAAgQloWa0AACAASURBVJgEIDx2mvM8d11X17USf3Vdd103TZP9zKyPTtOklKrrehxHv4JO09S2rVKqaRq/HD73rHme+76XRlXXddu2ZVqUrM0tStrwim16EtS6rtM0Wd2U9lHzPFvPusNBCA+vhXEc67quHP6UUm3bLsvCs8h3v+97AqPFYxxHFwK6hSil6PS6rvPlxEs2TVPTNFT2rQ2lVN/3/ORi9tH03KvakVVIjOh+Mx4pITxf0OZ5tnoH3efZcRZd133lkvWWKTwERPPRYXtv/OlYTAf4lFhvKKWez2fWqH4X7vV6tW3Liq8DUo1K8qnr+vF4lACHyjhNE4v2dP+mNv7MqIWsqG3b1+tF+ZSwMc+zlZU2J+oAmSbXNM3dej8Qnt+2+ng8TMvWvZlpmrR/XJbl+XwOw8CqnGq3ruu7VW2KRmgVHoLgvuE9UpeiUOnyfD6fplFVVbXlAvq+ZynL6fqYRkXtzlopZkoytnKCmHVdx3FkdtJ1nRxyWJaFhTtKqVtFMxCenxY+jqNpx/ttXta9PreEBmBt+YTOcaNY1RmGwepP9UEZybZtu5M+j5+6riOzcRm41rOMdIreKKHpMTdVVZVSan9ekAXTVVXdp+lBeFYzLHW04GVZrF0fpVTe/Z5A4VFK3cf0kzru1+vFIlPHgjO72teqpEV4Q+YU8J2Kx+ksU36yb3rTNLHyugxWm85Na5XLWW+oegjPSk29rmvZad2qg2VZmGfRZpH3nHmI8BQyGqkNhk0WuvddpKfINZQhbT6lOla8JTQ95m3cI5JhGEzFuomDKl14qKfv2NcxdejxeJg1StsZrzXwEx6llHs7MQl/6DYzDKXUqQlwNjqf67pzano6Ej+1os/a6bnVUFJc0zVZ6ZnCU/lTbK191P5UwqmcvRMXLTxmr8VxJISBZoGtrlellHvPiWV4891TwhP4xM/NUezcHmvnZwMR0yy1RfkZ584d3uEnFsLrkjp2Ded51unZvzcJ5+PilfawP7Ujr850+g4OqmjhoTjC217ZwCs1A8f2I03k5kdIePS42TAMtGa6Nv66rnN8vufm5fW4PdbIq6ryGFVn0uVtnx73/55TtpSjqipHr2rVLaXUe+7/nVdhPWC/MjJclzuoooWHKqNpmr7vHS2e2RxlQqqjhw5Ysjx2TeHJo0TRS8E0w89NUEhERuVnnNFLFyvD5/NJRWMbjgNB1nZXVVVmU2Kyu+MXhUQxy1i1v65rucJjjbk8xtNZPEKtKMvhEQjPftuTPWA/NyG7TR6WuX+r1/6aTng8+pfXoti/OrU4cixnR251/tJNXTvtWq7wyLatq/asp9jKx88+9q3w8l+pGZyldPmdv+cGZPP2G9OQUZFfz+k9pfa4iiwgOVZHh2jt8dxh9sKDxs4psph+ES1b21ZV1bVNuFzhIR9KFk8bp4Y1tmK3a+t1x5RDfiJoWZYuhIw+V7oJx4EjeWmZlZ/HkTnf5Agb/NGtz105JJ/8hrjlOJvflOG6/nxakfzbWdQpDAbCw6rj5+4pZ7EVu2UWomrjg/DsNEKrJZwKYszMpWP16zyZed5tm2mP+wM90o3qZpxZPCS7Kd5exWqcF4YyEJ5Q4VnXVfqI/IIv7bMgPDu+2zro6j3lwJzy5WMjOwUP+Wkcx67r2rZ1HGHT17Kirqoqs/FtOXLrLTxWN3UhrnKFZ8t2PR5Dg/CEuJ5szpVL0bwHRtb164UaFBmFOJ1sIOuCSI+sQ73Mnp+TwUeIDUg3dWEHsVzhsYYAHj2VQnr9usGjx7Pjwa1uwtsVytzyWyu8A3P/J+lDq6rKbyhSFjOu8ITktl9Bh78WLTzP55M177quz46NQHgOjayQBMyWPIIYE5T1pRhnjdPMMJttuWY9y+6ONTIO6aPElbFAcypaeDS7cRzbX39+U23UCaAhEb1xaoVCYC2+7XQqrLUBzPM8TRN9Cu75fHrH+28rUcQLxW3YhNq0q1MTIRGLdqusrJKcX3OzRrTWdudYOzIwurAPDeFxrLXNZNZmcGGNbt5ojB/IG5oNQH/XWbpdHYfWdV2Iu5QEQoYyCLUpPPm517NWae3u5DfIZl0AHbjAxCo8V/WhITxnLZ+nl+4mcIyFX+BO++QNtfDILxZrLymZZP+CautyVQhPXOOlLymYYmzGQHEvd21uci01hEfWSCUPHR4h6/nx48dh4nsm2Foal2tkagqPuYhLKdU0zTAMz+dTvyzr+XzKzzmf+uLRPWt8666sAyPRhSdXJ7tF1Twuv9Ca5YICKjK1NfKTKYTnKk+FHg9VtM+GtfeasXeQjWH/Myqv14shUkpd1bv3qWDncyA8zqh8EsogJvs+tGxrEB5pOiX2eKzDzVVVPR4PCSiPI6wxOH5UtATtgfDEsvC+79u2rf/8qV9/ZtSvOzrZr1thbU0TCAlqWTPUGaLHE8tu35ePtSIze4swo2k2Bvc2MM8zm/VxfyUXu4Hb7lqjEAy1na0v08CY2NBuXdfeLyI6ez8XpjeHss2ye9+S1V9BeLx5XnOidXbn7EeOr7n1gKuSXzirHPJR88wUmsiQjwhcY2LN0F3sAyr5ylMfj4fu4sh/TbB60Cnv1ZJWnQgxAGuGEJ4rzf3sta2ra9w/nnj2cvdJTyttzj7zZH3P7tlM7sNB3olVJ9DjkaD8jizLMgwD6zdr+cl1ZNuqExAeZj9lzfHI+N3jDW+M4Kfsjr/+PO5WPvAU0oo8biDpKRCepHh15q/Xy9r0snyOB8LjYlEFCQ9F/WbfP6fg3aW+PdLkzQ3C42ESfqdYtSenIEZjgfC4mEcpwvN8PmV/H6rjYiLWdV/ZzPRgcYGLDcRKY3XK2diSpoTFBS7WUorwSIuH6rjYx7qu0Z/td7zue5JZZRVzPIngW2U+s+/xWPvQIR076bvOfvQyYm3iAdITMGXNQXVO4Nv4Yl4eS2MhPKcsITyxnDLUQ995mNO6rhAeFyPJv8fDRpbdP9Prgq+QNHKU8sKYKy5zCE9cnoe5WZ9nqKoqmwE3CM+hDazrmrnwsPHWXN/74lLTIWmswhMyehByM3HPjT6QaPU7Vz11EZdVrNys5pTNUw3WxTghjUUO2IR8ITewEjHUdgyQxVZ1Xb9er+PTkEIQsHqKkLYkrnDlAVm6kDke1sPW40gQHrOCJXBNKY/V1dY+dEhjseK66sWJEB7Tki3bj8fDXDYdUvGW3D/n0OPxqOtaP0/etq2f9FpNP8Q734qfLF1I0azxad7P6p+tTSuiwBdGnL2HdOnfIzz6XfLpSrGVM4Rni8zP42zxdB6R1F6BN36T0ffZV+bojKVrzsZNrOtq9YPeEWXc3DYq9uLD8zyHfKaWDYCbAeJV/jQuUNleQkKZuLkFlhTCswmQvdqyWNXZWrrqAUSaPoRny/6swpOHP13XVXegtVTojzl5FM06Dabz9Nb7req45LhsLxAeVhEZLi4wW/4pJ6tf6p736ho/wZANKfATI8wKr921+kFvD2iaHznoawsY6+ps0pRKd3YltBW4zu1sVrGKFjefuDYgW9+FEwfo8dhNxazyU6qz/nla5cJKtRfJ9+hW8/YIvqTp57T+1epPvZ/0kqyysShZNK0WZwu4ZZkXLtbybWT282INcetZAw3Z/LfrOvuF0x+F8FgYm/V9VnXoNcxnT7Tcxz0ObTXvs8JDZEzTz+Y5nnVdrQX0XocmvfOFbiKiJW6N3Oo+9KnPu21ZZjbCYw1l/PrQ1qUKF/YLITy8TYWozrqu1K68PQ6/oav3t5r32QJaTT8bH6FrSaqFX/xhZXWhm4hog1vmpMORU17VbKpmNOO38iViGWNlZQ1l/PrQEvvZwDFWoXQ+EJ5vPM11Mn4ug3I41YS+3cTNdqxO0AOONXy71vqjk6baJz94dvhI35JklQ0oWTRidVYwzPFwysRv9jG6JcTKUJbRr+MrRfraSWgIz5eFmE3ibDhPuWhDOduE6PR7buhAXinV//rzC72lU87srY7W0TY/wZCsPJT+nrZkjWO0bJwVadm/1Plkw2pdV9Mp+VHSZiAFzK/nFMuoIDy/SZoVHFIl5KNj1dAd8qEXMvpJji6CdBOZybMuJrGiGNyj7yvdhMdq4ztYjvUepCVoVqesyzoM5ZGP9Q5vdZDh8gtlomQSEQuE5ydM80FRj4fD9XNwz+eTAtWzsVvEGk2RFamyd/ecpr7IHefX3dHkZUk9xkaYm/DGnsIYwvOU2lzX9SnVWdfV+iqznBZJEmc5PXOWlbRJ7xEduqvADQjPN9XRA8T6xTDu/5rOVG9n5inMx/L9PnEvfY1f4BZo7u85nRX2bEmZS1VK5dTd0U+P6mailBqGwa90slOo8zzrlN9jEoFXYYHI2bFEZpB3CItLF57X68UqVaqIx5HLA4pAQ5en0zvrPN7MTeeaJP0ETN7YDY+wd15UVXVq8JYZpEeH6YZM2C2RK1RKebz3j7rgpkXl2oeW3btTY9Syu3OHple68GzFTcygz+5mGXbRwphT2mMOYxLG/ISZOVY2POLuKQiyZnWH4JQVLcquOUNzypzWdd0KFnNlpYGTVJ81DObizvaWolS3zKRo4WFVQm4xfMNv9EBWz92OEDGllEsUP00Ti9+rqrqJ6adm6+EpWCB/1iOnLlHc/M2IRCnl3rEjIzTbad6qY5Vbl3Z02zimXOFhI+mmEQdunx3Tj9ueU+dmNvumaXb6drTUwuTpsXYjdYnS5W+y0m+l24lIGC6l1A7bdPf8zpxN7dHTq23b7iCapokh1abl4oLfWa5E12K4dAy3NVD5er1k6HPqxRCJSqGzLVd42GCI6RwDt7MPvphB63B1GIbnr79hGJqmkR0dj5VLSU3/PZmzkFMpJX3rOI7Mn9Z17bEI+z0linuV1+vFEGkFapqm7/txHLVR9X3PEOlGqpcnxL2lO+f2er0YB/10nakoy7L0fc8a4N2WOxUtPO7r1k6lvFsdp2hIwzAwy95Ra902UtzGR+RpjdNNizLRnRp0+ojiu9zkNE0smjGZWLe1hJsO1+VCeaSRrc80J9Yw76nN5QpPHiZ4bSlkYGX6CKVUXddFja3tVMc4jtaOIBGToetObln+NM9z13XahxIWtqGNquu6MiXHrPdhGPRHgRkivatBuUzEmnm+bRvC8zbU2V5onudxHPXbdOjfQkaKPCr1+XwSJb0xjuPOxIbHJT79lGVZJKW+70M+V/rpTLbuf1mWaZqYRU3TdHNhhvBsVSiOgwAIgAAIJCEA4UmCFZmCAAiAAAhsEYDwbJHBcRAAARAAgSQEIDxJsCJTEAABEACBLQIQni0yOA4CIAACIJCEAIQnCVZkCgIgAAIgsEUAwrNFBsdBAARAAASSEIDwJMGKTEEABEAABLYIQHi2yOA4CIAACIBAEgIQniRYkSkIgAAIgMAWAQjPFhkcBwEQAAEQSEIAwpMEKzIFARAAARDYIgDh2SKD4yAAAiAAAkkIQHiSYEWmIAACIAACWwQgPFtkcBwEQAAEQCAJAQhPEqzIFARAAARAYIsAhGeLDI6DAAiAAAgkIQDhSYIVmYIACIAACGwRgPBskcFxEAABEACBJAQgPEmwIlMQAAEQAIEtAhCeLTI4DgIgAAIgkIQAhCcJVmQKAiAAAiCwRQDCs0UGx0EABEAABJIQgPAkwYpMQQAEQAAEtghAeLbI4DgIgAAIgEASAhCeJFiRKQiAAAiAwBYBCM8WGRwHARAAARBIQgDCkwQrMgUBEAABENgiAOHZIoPjIAACIAACSQhAeJJgRaYgAAIgAAJbBCA8W2RwHARAAARAIAkBCE8SrMgUBEAABEBgiwCEZ4sMjoMACIAACCQhAOFJghWZggAIgAAIbBGA8GyRwXEQAAEQAIEkBCA8SbAiUxAAARAAgS0CEJ4tMjgOAiAAAiCQhACEJwlWZAoCIAACILBFAMKzRQbHQQAEQAAEkhCA8CTBikxBAARAAAS2CEB4tsjgOAiAAAiAQBICEJ4kWJEpCIAACIDAFgEIzxYZHAcBEAABEEhCAMKTBCsyBQEQAAEQ2CIA4dkig+MgAAIgAAJJCEB4kmBFpiAAAiAAAlsEIDxbZHAcBEAABEAgCQEITxKsyBQEQAAEQGCLAIRniwyOgwAIgAAIJCEA4UmCFZmCAAiAAAhsEYDwbJHBcRAAARAAgSQEIDxJsCJTSWAYhr7v53mWP+EICIBAUQQgPAfV/Xw+++9/0zQty3JwGn7+TqBt2+rXX13X338pa2+e53EcvxtUD4uyGsE0TQzU8/m0psRBIiD91TiON/RXEB6qsm8b0zQ1TaOU0u6S/auUqut6GIZv52Bng8Dj8SCAZQrPNE1t226ZU1VV6tdf27bTNG1QLOXwOI51XW+xUko1TTOOYyk43Mo5juOhv7oVNAgPr9h5npumIUepN7RfkI1BKQX54QS/779eL5NbacKjIxhmTvu7TdOUKT+Px6OuawZnq+nVdV0mpe/Na7VCYwxpt67rm4x1Q3i+1WPf96aXrKqKeYHn89l1HUtT1/Xr9fqWEXb+EKBBNm39RQlP13XU5nW3pm3bcRyfxt8wDNLbVlXVtu0fhEX8z+xEKdW2rTm2Zu01lkbJNIXX6yVDZD0SY9jXcxgGszOklDKpmhm+cxvC80Wbmf5+SMUS36Q6vwpzj61pmkzPW1VVOcJjygkLX2TlMIkqTaRNVjra25qWWJaFJS7HokyzmaZJhr87XcBlWchlKaXMrC7ZhvD8xk614t7mx3E0vapSaqu1XFK1d7go8xHlCA+Zk1Jqxx2YddT3vWlO7nZoZvKJ28xIXDoxhLccSmbNMs/j2D9+Pp+kVX3fmxm+fxvC85M5q0illOPQGQtUywy+tqyWwSnHR5CEnB2DlSMnOvzfIpzBcSYhTdM4ForJVdd1jid+ejLmrKqqOlw1MI4jSY5uhpd3eiA8K5v9rqrq8Xi4WydrAJeHEu53njSlHGQrRHiWZaFG3jRN3/fu/eAtaIeeJWlVpsuclffUmIHJWZuWY88yXXHekLO5QFSX+tDhSFD6xGtXGUB4Vu+YS9sZC0BONZ43WOpVl2B6rG29hKE26u5QkZVSh96BqolEi07PGBozEndKGhdrudmPN8zzzMzDZVhSGqQ2rWuXGJQuPDIc8IguPayBHE2WG9ZBNm3u2XsH5kxJPxzj8a3Tr41PU1hpeMQ2zzPh1RsejTdF0RLlyWzDcUbAOn5bVRWEp/rx40eiqjrMlgVNfv0VVrWXj58eljppAorL6l9/zDVkLzwsCqHiO85eMOdCpzvqVtKajZs5K6lfq2G0M7Yu2XFxVFl5ojYqCM+VwsMM18/6ZdWeHTSI26SvzY0cyjRNtE0ONGPXoLEzizpbcElM55CZRbHZHe81FBJXfgq9rqscmHFvRxK1fqTsWi9R9FDbMAzkF/SGe3Wa1fZ8Plk+fgJm5vmh26TBepWR9At+hD+IBoTHpbLYIEFVVX7KSvZGDdBl2sPlDm+VRuI69cIUOa7j2FtKB6Fo4ZFu0c/613WV7ia/QflDKzQH2XRiSTh74ZFF1j7Rcb3v1unXDowcVv3ZBLK9+BVQhvP5xXxRyqjf+1DXddd17sssz1are/qihUda/6k4wqQss/LWMDPbz9omp0nr0ekIBaTZC4/5mB6V2nEe2BrB6ExyimOkJ62qyq+AcrDh8mnz6G2W9Ve8hyWj31hIhuUKT1yTLdDDMrOjQQ9zrKNMLPo9szoW0e8cc3weeUt4MoviyVRMYWbm5L6bd8wnZ3eqqvKOj92ppk5ZrvBI6w+JlaSHzcxZ7BsiNQ8W2kss2fd4TFBno3hrMOT4QhTzujffllYR0lik8DguILw5JX17ch46xE3dp8jlCo+crwup0bht6T724XgnBJMG2fSJEktRwuNIj5JZgyG/Jf6U5w03pFTEFZ6cbEy2oBBW9zGGcoUnbo3K3EJk7D724XInFJSZg2z6RIklJ6fgAudUGokrv+6OdTgxxCriytip+kqdmAYSaEzyDiuho5S6XOGJa6/WZ/WzfKSAmR21DTbIppNJTxriYtilM9u1Trnn192RrxsIfCeQtLE8+gTy5cVafrZakPkNnrNjvO9vShCer2AixF6tgyQlLGyjQTbrkwHSKWw1m/eb/t2uSCS/LNLhxcN3K8Xh/VjnsUKsQtpYNoMN1nCWsXo8HuZ33sh4lFL6o3CHNXJJAggP1dTP795710GZwkOv29qazpVOgTUbb+CZnUgkv8zR95nKm5OxduxCrELaWDbCYy2aycoarJgmpIfmbhgBFyo81rAruvDIOY+bO4VTt0efk9gZDpItx2w2py6XcWLroz83dBZRqsAaooVYhbQxl0/URClL6kzkdID5igcquFKq6zpzqK3rOnZuXde3Gn+D8HzFB9GFJ6Q5pbbp8PzpubadpwqobRDlvJl4UB2GgfkIpZR13NIj8xue8h7hyUC2afaU2o7e0EWjlrUT3VIL1ScqpfxeD5HCiiA8X9UK4XG3MPog1dYgm86KmgdRLlx4KCydpqnve8mnaZo7vNHE3RLOpoTwOBKzjsroHg+NsO2ojr7KbbUHwkMuMf4cT65O1mWQTdu9dKy5Mtn3Jjp6ZT2bL8v7tZV3R4f4QHgIxf7GlvBQmzpUHZ0/pdf2ppS6w5hbocJDj56YjR89nv2WQL9SGLUzyGY1+sCFs3QDH7ex5URM87vtPHBc2hStm2UPCUeYY9XZZjDUZl1vQtCsTy9Ya4pe3UvnhtC2XsLjYKHCYw27IDwuBkSDbC7mK52Cy1kut/FxaYZh6MWfnATW8uP4KuuPg7CuqzSJwHDEmmEGwmP1USQep2YBpdhfbmAQHqpKDLU5+THdzh077NIpFCs8O3Afj4cchVNKsfcP7eTwQT9Jk4DwWKtvR3jOhshyCbtj+7XeWJSDEB4IzwlDoifaHCNK6WUgPFbcr9dLsjLXzlrP+sSD1mKGWIU1Q0f7vDPAHeHx6K/IyGZ/WVBqMoUKD+Z4PAyL4iZ3NyGdgvu5Hnf40afQko2vUOjXluMc8qeUXQ77oMdjrTurj9K24fEuLtkSdx6/s95P3IOFCo91svdsB9asCWt4kpmT1bZ7qpMuzT0zJqYNhG+TtDPtOTWgH34bSXOI3lKkjeXRU7T6KO+XhFopHS4OSmcJEJ6vNg7h2bGzs4NsOitp7hCeHcjrulo7BKfEfj//y3+F8DhWwRuE58LGCOGB8Bw3BIrEz1oqhOcY7vcUhPrLLn9tXTsi//0eg/YgPI74toTnbBvUl6NHIEy7Cgm1HUuxlQzC81URIdVgbU7ZjM6TfpwdXKYTibJfs9ky3yyPy3lgTe8s/HvCsbaUEKuQNpbHu9qs34/wng+zYq+q6qqHSQsVHuvXqKILTwZLa9Z1JZP1WEsjnUKIi7mnJ41+VxKaFp48Oj3WLl2IVVhx3eelZCHmYQ1B/FhRK6YQUG9cBQrC81URIcJjtf4MhIcee/Yzd4nFL5+Q1vtx5275iBD7vA8E6whSiFVYvfNV/jQuZ2vR/FhtGdVVoCA834TH+/2M0sNWVZXB2AiVy68sdDpR9ms2cdvzzXOLu472boW1jiCFaKr0ziG53QqXbD7Rh9ogPO+ucWuleldD3NzezWLjemZwqrz+SG/MDWtOeYwjres6TVPbtnVdN03jtwzaxG5yy2OVcPRRbgjPRvP9dhg9ni8c1Kh+/PjxdfRdW9ZlHhGFJ4Owa8cDUt3F2sijJySNyuMDXDvYMxi8fYPw5GFL5vSq2cr8Sgfh+RIWonmJ8Fhrwlt4sgy7djwg1V2sDb/m9GVMN9iiR50Yk7NF28Husb7jBmD4LcjhAe8ozTpwl1PvmdkShtqYMVVs32WXmF4iPNbm7R1RSuHJw/rpw2V+GxJLXdfWrK5a1uliqI5pZGHJwk8FNFbL1Fl526djEd6TLGLMZ2V14QP5cQFaP0LqJ9LWqMgvqyhlLHdxgbXL79ewrfaRjfWH2Jn0xWfD/5Crv/Nca+hNwnPKrqzONCfhsRbwlDZTzVo/WpNBEEMFjNU7lPl4v32H7i1ko2jhka8n8XOLsiFd+wK+EIOIe245wiNtgFTn7KIAa4dA5+bnnePWaZTcpGGc0ma6B8nqwiie7irihrWAHotvrcJz4RPuRQuPDJf8rFYah5+ARbTXm2Ql/UvGZGRhSXtOCYZ1VOTa+DS6OclVGH5D09Kf5jENRsCtoymnzElnJUFd+36HooVHjrb59VRkz8lvHS1ZWzYb0hcXKDxni2z1EVVV+bnme9qSHJn0i/mYgfm133sioruS7sVjGJ+BujyOKV14ZGfFQzNYpfo1IbKznDYYGe81OR/BRDoIXd6zUw4Smu45+T3De1t0DJeHZkj1ykmbqeLkS4bOFtM6Duw3tkl3FbhRuvDITs/ZSpVmcW2NBhpE3NOlDz0b/se9n6S5mZZQ//rziEzl8K9WnbNmmbSkUTI3cekynsUlo8bMtJk4S5Gmn1w25MDm5c0QwvP1Ekxt/WcjL1apl9eoiyG+LU1RwmN+TcfbDKzjbDl9j8e0PeZPz0Jj1nXhVLlZqBTbUqTdo1vrLNHlCg3h+WknrLW7W7A0iMtrNIXd++Vp7eDnPQ5J71Stqsrdigjv1lvaznYFKMObb0if6F5S1t1RSr1er5uXN+T22JIT91iERcZVVd1h/QWE56cxmP7Cvdf/er1YzHWHGg0x7ojnzvPM5FyDvYndRywpy8ocK6vr2j0QeT6fzJw0MQ8BY7d0510Tl57xdlmyJQO+x+Nx52JGuTfWoFw6iAyvXzwU5eZZJhCe30BkDe2vMliWhdlB3g6C2Q3bbZqm/vOn3wFKMmPd0Gn+nPHzf/dQd739H7Oltm0P1xdM01Sg6uiaZCG5UmpfeySrnIxnx7plB7Gu651nemQH+j4zhRCer4p+PB6s8bdta63XcRxlyq+MyttiNKxis3/Qfcz6I+hKW9LiKl3qwyiVbgAAESRJREFUPM/M82pQSqn90OcjODjepBw327IHlvLah1EcSxcxmRxIUEr1fc/c1DRNbP7sPn0dTQPC880q5nlmFaaUapqm//PXdR1zskqpQgKub6S+7zAm+xpj/XXL0Xy/ziftvV6vtm0lGbO3J3/VcJqmYa7kk0ruda+Px4MNISil2rb90/J6CfPUSKbXTd30JBmpkFFZxxtuGMRAeCy2NY4jawNWX6kbRmkOwsJrXa3v/Tx1MNeZ4WVZpMe0mpOe4Wiaxn1ayFoXH32w7/stMTah6TD/o0saePPTNH20j4LwbBrAPM9d19V1rYMI81/vb3xtXgw/5E5gmqYtc6KvxiGI0VZAH9MzG51Sqq7rtm1LFmbWSvZ91DAMt7UoCA+rSuyCAAiAAAikJQDhScsXuYMACIAACDACEB4GBLsgAAIgAAJpCUB40vJF7iAAAiAAAowAhIcBwS4IgAAIgEBaAhCetHyROwiAAAiAACMA4WFAsAsCIAACIJCWAIQnLV/kDgIgAAIgwAhAeBgQ7IIACIAACKQlAOFJyxe5gwAIgAAIMAIQHgYEuyAAAiAAAmkJQHjS8kXuIAACIAACjACEhwHBLgiAAAiAQFoCEJ60fJE7CIAACIAAIwDhYUCwCwIgAAIgkJYAhCctX+QOAiAAAiDACEB4GBDsggAIgAAIpCUA4UnLF7mDAAiAAAgwAhAeBgS7IAACIAACaQlAeNLyRe4gAAIgAAKMAISHAcEuCIAACIBAWgIQnrR8kTsIgAAIgAAjAOFhQLALAiAAAiCQlgCEJy1f5A4CIAACIMAIQHgYEOyCAAiAAAikJQDhScsXuYMACIAACDACEB4GBLsgAAIgAAJpCUB40vJF7iAAAiAAAowAhIcBwS4IgAAIgEBaAhCetHyROwiAAAiAACMA4WFAsAsCIAACIJCWAIQnLV/kDgIgAAIgwAhAeBgQ7IIACIAACKQlAOFJyxe5gwAIgAAIMAIQHgYEuyAAAiAAAmkJQHjS8kXuIAACIAACjACEhwHBLgiAAAiAQFoCEJ60fJE7CIAACIAAIwDhYUCwCwIgAAIgkJYAhCctX+QOAiAAAiDACEB4GBDsggAIgAAIpCUA4UnLF7mDAAiAAAgwAhAeBgS7IAACIAACaQlAeNLyRe4gAAIgAAKMAISHAcEuCIAACIBAWgIQnrR8kTsIgAAIgAAjAOFhQLALAiAAAiCQlgCEJy1f5A4CIAACIMAIQHgYEOyCAAiAAAikJQDhScsXuYMACIAACDACEB4GBLsgAAIgAAJpCUB40vJF7iAAAiAAAowAhIcBsew+v/9ZUuDQLwLfOT1BZYsAQG2R2TnOoC3LspO4tJ8YnPsXH8KzWUfDMNR1rZSqvv+pX39d183zvHlyST8AlGNtA5QjKEq2LMs+tLZti1WgZVm6rtvyUXVdD8NwWzgQHjLyr42+76XefFef33tN05QsPwD1ZTS7WwC1i8fy47Isbdu6NEOlVNd1lizyPXQKTtu2r9frbjAgPN9qZJqmuq5NjdFmPU2T7sz2fW9N8C2XAnYAyrGSAcoRlJlM6rRSqmma3vhrmsaUpbquzRwy3h6GwSx4VVV1Xfd9rx3UNE1d17EESqlxHG/FBMLzVR3jODLJ6fv+62djS3qTpmmM3zPfBCjHCgYoR1CU7PV6NU3j2AzXdR3HkQLBErSnbVsG5/F4ED1zYxxHJj+36hdCeH5XlvQRz+fB9DgzghLsXjd1ZvoAZTZ42oZFEQrHjefzyXxlXdeHsxSv14vOultc71hwx2TS4eyPoS3LQqqs22zbto7XSp0MwvOTMLN4pdShM9UVw6Kz+9RrIrsBKEewAOUIipIxYlVVHbameZ7LGXAbhsEM+BzDXFOV9ek30WYIz0/LZ3HB1ggbNRLakPW61fOlUz56A6Acqw+gHEHpZPM8U6/FPTZnp1RVpZQ67CGdurGbJF6WhRV2mibHe5umyVSsmyCC8Kx935sV4xhKUK0Hnk753H8jsKSBp9+fD91hYEkDT6fb+KANptMubZD1AKgJO45VfBCcdV0DR1YCT0/BCsKzslBiGIazoFkO7h2msxe6Nj0rJkBtVQdAbZGxHmdTF0opl0cU2FkZCw/rslRV5cLHRC1zcO8wmflE3C5deFh06VGpcqROKRWxhm6SFUA5VgRAOYLSyR6PB2mG3nCM27quYyfq3fx6PKy/4udeWDB0+Src0oWH1YdfpUpfc5MZvFMuYD8xQO3zoV8BilC4bHjjYosGtercZALDpeCOaeZ5ZvrqMg4pM2eDmZeDKlp4pO36VarsyfrlI83lJkcAyrEiAMoRlE4mey2nnjVhzrSqqlOnn7rVqxLLEUXHHiG74UDULLfw3aKFh/VhvQ1Xrjm5PKAItwwzB4AyaexsA9QOHPZTlFaj33GglKrrOr9hhnXlM9BVVflNz8iQyG90h1Wi927RwsO6+VVV+UUTVvvwmHv3rsXUJwKUI2GAcgS1rquMwTMbJ3BHsZVSjrNVVeU3ifV8PtmQnd989tatnj1ervBYa8KvUq3Cc/n03VlT2EoPUFtk2HGAYkD2dyOK9P6FPvdXOXns3U2R/cuqqi4MjssVHutzAN7CI4ebvU3kbu0EoBxrBKAcQckXL+W6IM0diDWlHLkN8SpS6Q/fDWG9qygHyxUeOWvn3Y2VK6r1Q9RRaujyTADKsQoAyhGUfCIyp/biDuEwpZSKuMJz4dhmucITt48icwuRsUOLfGcCWbQQ65e5AZS1NjMGZR2aDjEqK8AMDkrhCZEKmduFzMsVnrjVEDfavVWbASjH6gAoR1Dy8QP9URnH0wtJZp2VgfCw2q/YvssurbL48eOHS/q4aeK6CTkNGLJGLm5JA3MDKEeAAOUIytpYmEtdlkV/dFF/aZ7+1R89O/vOGMcbu1Uy61oVRunUDd+qD40eD8nfz1fbnqpIM7G1LXkvzjZzvnwb/tSxCgDKEZTVA5ouVX6B9KuV/tlqmsbviRbHm7w8GYTHpQo+rMdjrdTowpPBc9QA5WL9+pNOf1zi1/+wKCs9qdDms9vmqLXu39AHr6ViZdDErIjWlb81X1uVKc9bJ24dl/S8H0fduoT78UJ7PO/xpyFW4l6FSVMClCNegHIEZV1ZQOPSpDp1XVs7NPKr8xm0Mis66yBKSGGtwnPVqAyEJ2F8GmIlVlt8/0H4U0fmABUCSgsPvcvgsOEwH3qY3vHebpUMwuNSHRhq+/Y1ufB+sQv0N6SBP3WEDFAhoKqqooclXVREfvnX5SzHO7xJMgiPS0V8mPDIV+YFPsIW3UpcoL8hDUA5QgYoR1DWtdQ07OD4Fbh1XeWHfC58Dt+x7KeS0agjwQlcdM66iTpbDLWdqpTQxFadiD4VnEEUBlCOpgZQIaDIt57yg9KTXvjyMcfiuyeTpYPwSHof1uOBm5BVaD0CUFYs8iBASSbWI1ZQWnjORn6yl6mUer1e1ut+3EEIj0uVQXjynOOxuomzDsI0IGuG6BqaiPR2UaC08JwdK7M+2382E0n+JkcgPC4VAeGB8LjYSfynE5yumj6RVSeg0BK8FZQWHo8vuclHgkKYy7u98AiExwX+hwkP1iC5VOrbnovMoMcDiwqxKL20Z1kWx0womdU7ewgYZXifDatCh7QUK6tTk2oR4eA5HprXjP/KnBAriVjHIVnBnzrSA6gQUN5rSq3ONI9vMEJ4XCwKPZ48h9rgT12sH11DR0pboLzXa9HTP1/xYxUUQboXJHVKCI8LYQiPRXgyiLzeIzwAJduY1e/kCspbeKyUlFIeo3ayCq49Yi1ayCCKtXd41QL0QofarOthQqYlrVZy1fhpxAYDUI4wAcoR1Na72vxcqrXd5fFpQblY3FueddVYhef5fLpXXMSUhQqP1fpDhMfa5c9AeADKvbHFXWFVlEV5u9SMhcc62OAnz9qGpX1eqNAQnq/B4RDhsUYTeayukfYKUFY1AigrFnnQ2lj8XCqER+LdOmK1z6vGJMsVHqv1e3c84+a2ZTqXHI9btLi5XQJk66JxixY3t617vuS4tWgQHlkXVqmQyRyPxM3N8aJbycoVHutQRkThyWOGc11XgNpqPOw4QDEgW7v0+YOv0YaqgvBIXHGlIm5u8m5PHSlXeKyddG/huVWlnrKAw8QAdYhIJwAoR1ARp82tzC+cunAk4JhMdg29R7mti1/8xN7x5veTlSs81tezey8ulMJzYaXuV/nZXwHKkRhAOYKa59ns6+htP5dqFZ5sBhusXcN5nh05m8msSxUuXP1UrvBY12t514QUHu+sTHO5yXbE0kXM6iZwzNuIWLqIWZl3eJNtWTo/4ZF9Au+XINyEjHkb1lDGb1QmYlbmHXpvFy080mr9HtCzRhN+gYl3RSY9EaAc8QKUIyj5lbOIwuPXih3v/M3JpEL7jcrIrqEf8FjFL1p4hmFgXX6/yoiVT6xKjZ5PrALGyid6AWNlGKuAsfKJVa7o+VhH2zxiean0VVX5ueboZYySoVyx4vfdh1j5RCnUuq5FC48cbfMTHhm+5TTOpk2NRV4AtdUCAWqLDDsuNcPjuTdGO6dxNo1LDpH5TR5LUNM0sRp5527pwiM1w6M+WKVmM7dpGiJAmTR2tgFqB475k1zbdjaWt3abzmZi3tI9t5lCe8R8ckmbn3pF5FO68MgqOWu44TlErM50WYUXMzyHdKWLmHN4McNziFicpFkFulTrvMVVj+KnAyUV+mzXMDyH6KUrXXjWdWUh6tmAgi15zOmr78zaAIoB2doFqC0y7HigQ2QjDZnN7pismEKfXT0ReLp5J7G2ITzr6/ViFuw+QyOD05wmNpmRARQDsrULUFtk5HE26e0et8nuzll3LG/mtkfkTI/7jABTd6XUHRbcQnh+Gtvj8WDL2xzr9YahRNLGA1COeAHKEZQM3VzGup/PJwsWL5+0cCyvdzK/kRWJ1z2q9r5VlxMhPL8pyXo9XNzJRlSyN31NCqBc2tW6rgDlCEqG8/vaI1XnJlG8Y3m9k7Ew99DhvF4vdso+WO8b8zgRwvMFTXqKrXGzZVlYjdZ1nd+s5hea71sA9Z3H5h5AbaL5/sM4jrIHYx116Ptepny9Xt/zy3aPjUzWdW2ltK7rNE0M1H1UB8/xcAO1NoBhGJ5//qZpatv2zjXKi5RmH6AcuQKUI6jn88mCOf1QTtu2fd+3bVvXNWt3VVXdypk6ljQwWdd1jEPTNOM4/nFRz3EcmT4ppW4ywkZlR4+HUPzeeL1eUlrYDBDt1nX9eDx4FmXsA5RjPQOUI6h1XWWHhtoa2yi56c3zzKSFwaFdpVTTNHdYTcBsAMLDgPzeXZZlGAZrkKV+/bVtu9XJteeY6VGAcqxYgHIEta7rftPTAb57brmmnOdZ935YB0j3FJVSXdfddvwfwnNsltSH1Ru3rcvjkiROAVCOgAEKoBwJOCZjFuV41oXJIDwXwselQQAEQKBEAhCeEmsdZQYBEACBCwlAeC6Ej0uDAAiAQIkEIDwl1jrKDAIgAAIXEoDwXAgflwYBEACBEglAeEqsdZQZBEAABC4kcAvh+ctf/jLF+LuQIy4NAiAAAiUQ+Mc//hHurf/2t7/RU64/fvzw5lZ5nEkXjrXxT//0T//7v//rcSc4BQRAAARA4JDAX//611jumvL5eOGpquo//uM/DtkhAQiAAAiAgAeBf/7nfybBiLWRg/DgNTYexoRTQAAEQMCFwI8fP2LpDeXzbuH5/3sncf8wzuZiOkgDAiAAAt4E/va3v8X12//93//tfTM+czzeF8OJIAACIAACIADhgQ2AAAiAAAi8lQCE5624cTEQAAEQAAEID2wABEAABEDgrQQgPG/FjYuBAAiAAAj8f2emkSyweq3kAAAAAElFTkSuQmCC;" vertex="1" parent="1">
          <mxGeometry x="1421" y="230.77" width="262" height="251.56" as="geometry" />
        </mxCell>
        <mxCell id="F5iI7IxURP_fGUeo5Xdc-2" value="&lt;font style=&quot;font-size: 20px;&quot;&gt;V1&lt;/font&gt;" style="text;html=1;align=center;verticalAlign=middle;resizable=0;points=[];autosize=1;strokeColor=none;fillColor=none;" vertex="1" parent="1">
          <mxGeometry x="1432" y="195.77" width="50" height="40" as="geometry" />
        </mxCell>
        <mxCell id="F5iI7IxURP_fGUeo5Xdc-3" value="&lt;span style=&quot;color: rgb(0, 0, 0); font-family: Helvetica; font-size: 20px; font-style: normal; font-variant-ligatures: normal; font-variant-caps: normal; font-weight: 400; letter-spacing: normal; orphans: 2; text-align: center; text-indent: 0px; text-transform: none; widows: 2; word-spacing: 0px; -webkit-text-stroke-width: 0px; white-space: nowrap; background-color: rgb(251, 251, 251); text-decoration-thickness: initial; text-decoration-style: initial; text-decoration-color: initial; display: inline !important; float: none;&quot;&gt;V1&lt;/span&gt;" style="text;whiteSpace=wrap;html=1;" vertex="1" parent="1">
          <mxGeometry x="1391" y="235.77" width="60" height="50" as="geometry" />
        </mxCell>
        <mxCell id="F5iI7IxURP_fGUeo5Xdc-4" value="&lt;span style=&quot;color: rgb(0, 0, 0); font-family: Helvetica; font-size: 20px; font-style: normal; font-variant-ligatures: normal; font-variant-caps: normal; font-weight: 400; letter-spacing: normal; orphans: 2; text-align: center; text-indent: 0px; text-transform: none; widows: 2; word-spacing: 0px; -webkit-text-stroke-width: 0px; white-space: nowrap; background-color: rgb(251, 251, 251); text-decoration-thickness: initial; text-decoration-style: initial; text-decoration-color: initial; display: inline !important; float: none;&quot;&gt;V2&lt;/span&gt;" style="text;whiteSpace=wrap;html=1;" vertex="1" parent="1">
          <mxGeometry x="1490" y="196.77" width="31" height="50" as="geometry" />
        </mxCell>
        <mxCell id="F5iI7IxURP_fGUeo5Xdc-5" value="&lt;span style=&quot;color: rgb(0, 0, 0); font-family: Helvetica; font-size: 20px; font-style: normal; font-variant-ligatures: normal; font-variant-caps: normal; font-weight: 400; letter-spacing: normal; orphans: 2; text-align: center; text-indent: 0px; text-transform: none; widows: 2; word-spacing: 0px; -webkit-text-stroke-width: 0px; white-space: nowrap; background-color: rgb(251, 251, 251); text-decoration-thickness: initial; text-decoration-style: initial; text-decoration-color: initial; display: inline !important; float: none;&quot;&gt;V3&lt;/span&gt;" style="text;whiteSpace=wrap;html=1;" vertex="1" parent="1">
          <mxGeometry x="1536.5" y="196.77" width="31" height="50" as="geometry" />
        </mxCell>
        <mxCell id="F5iI7IxURP_fGUeo5Xdc-6" value="&lt;span style=&quot;color: rgb(0, 0, 0); font-family: Helvetica; font-size: 20px; font-style: normal; font-variant-ligatures: normal; font-variant-caps: normal; font-weight: 400; letter-spacing: normal; orphans: 2; text-align: center; text-indent: 0px; text-transform: none; widows: 2; word-spacing: 0px; -webkit-text-stroke-width: 0px; white-space: nowrap; background-color: rgb(251, 251, 251); text-decoration-thickness: initial; text-decoration-style: initial; text-decoration-color: initial; display: inline !important; float: none;&quot;&gt;V4&lt;/span&gt;" style="text;whiteSpace=wrap;html=1;" vertex="1" parent="1">
          <mxGeometry x="1581" y="196.77" width="31" height="50" as="geometry" />
        </mxCell>
        <mxCell id="F5iI7IxURP_fGUeo5Xdc-7" value="&lt;span style=&quot;color: rgb(0, 0, 0); font-family: Helvetica; font-size: 20px; font-style: normal; font-variant-ligatures: normal; font-variant-caps: normal; font-weight: 400; letter-spacing: normal; orphans: 2; text-align: center; text-indent: 0px; text-transform: none; widows: 2; word-spacing: 0px; -webkit-text-stroke-width: 0px; white-space: nowrap; background-color: rgb(251, 251, 251); text-decoration-thickness: initial; text-decoration-style: initial; text-decoration-color: initial; display: inline !important; float: none;&quot;&gt;V5&lt;/span&gt;" style="text;whiteSpace=wrap;html=1;" vertex="1" parent="1">
          <mxGeometry x="1630" y="197.77" width="31" height="50" as="geometry" />
        </mxCell>
        <mxCell id="F5iI7IxURP_fGUeo5Xdc-8" value="&lt;span style=&quot;color: rgb(0, 0, 0); font-family: Helvetica; font-size: 20px; font-style: normal; font-variant-ligatures: normal; font-variant-caps: normal; font-weight: 400; letter-spacing: normal; orphans: 2; text-align: center; text-indent: 0px; text-transform: none; widows: 2; word-spacing: 0px; -webkit-text-stroke-width: 0px; white-space: nowrap; background-color: rgb(251, 251, 251); text-decoration-thickness: initial; text-decoration-style: initial; text-decoration-color: initial; display: inline !important; float: none;&quot;&gt;V2&lt;/span&gt;" style="text;whiteSpace=wrap;html=1;" vertex="1" parent="1">
          <mxGeometry x="1390" y="288.77" width="31" height="50" as="geometry" />
        </mxCell>
        <mxCell id="F5iI7IxURP_fGUeo5Xdc-9" value="&lt;span style=&quot;color: rgb(0, 0, 0); font-family: Helvetica; font-size: 20px; font-style: normal; font-variant-ligatures: normal; font-variant-caps: normal; font-weight: 400; letter-spacing: normal; orphans: 2; text-align: center; text-indent: 0px; text-transform: none; widows: 2; word-spacing: 0px; -webkit-text-stroke-width: 0px; white-space: nowrap; background-color: rgb(251, 251, 251); text-decoration-thickness: initial; text-decoration-style: initial; text-decoration-color: initial; display: inline !important; float: none;&quot;&gt;V3&lt;/span&gt;" style="text;whiteSpace=wrap;html=1;" vertex="1" parent="1">
          <mxGeometry x="1390" y="339.77" width="31" height="50" as="geometry" />
        </mxCell>
        <mxCell id="F5iI7IxURP_fGUeo5Xdc-10" value="&lt;span style=&quot;color: rgb(0, 0, 0); font-family: Helvetica; font-size: 20px; font-style: normal; font-variant-ligatures: normal; font-variant-caps: normal; font-weight: 400; letter-spacing: normal; orphans: 2; text-align: center; text-indent: 0px; text-transform: none; widows: 2; word-spacing: 0px; -webkit-text-stroke-width: 0px; white-space: nowrap; background-color: rgb(251, 251, 251); text-decoration-thickness: initial; text-decoration-style: initial; text-decoration-color: initial; display: inline !important; float: none;&quot;&gt;V4&lt;/span&gt;" style="text;whiteSpace=wrap;html=1;" vertex="1" parent="1">
          <mxGeometry x="1390" y="392.77" width="31" height="50" as="geometry" />
        </mxCell>
        <mxCell id="F5iI7IxURP_fGUeo5Xdc-11" value="&lt;span style=&quot;color: rgb(0, 0, 0); font-family: Helvetica; font-size: 20px; font-style: normal; font-variant-ligatures: normal; font-variant-caps: normal; font-weight: 400; letter-spacing: normal; orphans: 2; text-align: center; text-indent: 0px; text-transform: none; widows: 2; word-spacing: 0px; -webkit-text-stroke-width: 0px; white-space: nowrap; background-color: rgb(251, 251, 251); text-decoration-thickness: initial; text-decoration-style: initial; text-decoration-color: initial; display: inline !important; float: none;&quot;&gt;V5&lt;/span&gt;" style="text;whiteSpace=wrap;html=1;" vertex="1" parent="1">
          <mxGeometry x="1391" y="442.77" width="31" height="50" as="geometry" />
        </mxCell>
        <mxCell id="F5iI7IxURP_fGUeo5Xdc-12" value="" style="rounded=0;whiteSpace=wrap;html=1;fillColor=none;strokeWidth=3;strokeColor=#00CC00;" vertex="1" parent="1">
          <mxGeometry x="1483" y="234.77" width="41" height="40" as="geometry" />
        </mxCell>
        <mxCell id="F5iI7IxURP_fGUeo5Xdc-13" value="" style="rounded=0;whiteSpace=wrap;html=1;fillColor=none;strokeWidth=3;strokeColor=#00CC00;" vertex="1" parent="1">
          <mxGeometry x="1529" y="234.77" width="41" height="40" as="geometry" />
        </mxCell>
        <mxCell id="F5iI7IxURP_fGUeo5Xdc-14" value="" style="rounded=0;whiteSpace=wrap;html=1;fillColor=none;strokeWidth=3;strokeColor=#FF3399;" vertex="1" parent="1">
          <mxGeometry x="1529" y="285.77" width="41" height="40" as="geometry" />
        </mxCell>
        <mxCell id="F5iI7IxURP_fGUeo5Xdc-15" value="" style="rounded=0;whiteSpace=wrap;html=1;fillColor=none;strokeWidth=3;strokeColor=#FF3399;" vertex="1" parent="1">
          <mxGeometry x="1578" y="285.77" width="41" height="40" as="geometry" />
        </mxCell>
        <mxCell id="F5iI7IxURP_fGUeo5Xdc-16" value="" style="rounded=0;whiteSpace=wrap;html=1;fillColor=none;strokeWidth=3;strokeColor=#3399FF;" vertex="1" parent="1">
          <mxGeometry x="1578" y="336.77" width="41" height="40" as="geometry" />
        </mxCell>
        <mxCell id="F5iI7IxURP_fGUeo5Xdc-17" value="" style="rounded=0;whiteSpace=wrap;html=1;fillColor=none;strokeWidth=3;strokeColor=#B266FF;" vertex="1" parent="1">
          <mxGeometry x="1626" y="388.77" width="41" height="40" as="geometry" />
        </mxCell>
        <mxCell id="F5iI7IxURP_fGUeo5Xdc-18" value="" style="shape=flexArrow;endArrow=classic;html=1;rounded=0;fillColor=#0050ef;strokeColor=#001DBC;endWidth=25;endSize=11.66;width=18;" edge="1" parent="1">
          <mxGeometry width="50" height="50" relative="1" as="geometry">
            <mxPoint x="1720" y="356.04999999999995" as="sourcePoint" />
            <mxPoint x="1821" y="355.77" as="targetPoint" />
          </mxGeometry>
        </mxCell>
        <mxCell id="F5iI7IxURP_fGUeo5Xdc-31" value="" style="shape=image;verticalLabelPosition=bottom;labelBackgroundColor=default;verticalAlign=top;aspect=fixed;imageAspect=0;image=data:image/png,iVBORw0KGgoAAAANSUhEUgAAAkgAAABlCAIAAAA50Ys5AAAWIklEQVR4Ae1du63kxhJlCApBEkBA5gZAY801lzHQkSmDKTCDAdaUMQEIY11zEiBwbVryRgFMAHzYLd16pf6xvxx+zjV2e8j+nq6q09U/VjP+gAAQAAJAAAgcCIHqQG1BU4AAEAACQAAIzCA2CAEQAAJAAAgcCgEQ26G6E40BAkAACAABEBtkAAgAASAABA6FAIjtUN2JxgABIAAEgACIDTIABIAAEAACh0IAxHao7kRjgAAQAAJAAMQGGQACQAAIAIFDIQBiO1R3ojFAAAgAASCQjdje3t4+h/z9/vvvf//9NzoACAABIAAEto/AX3/99fXr1xAb//mFjcpGbH/++WcV+Pfly5cXthxFAwEgAASAgA8C//zzT6B1/x7dJ+dCcbKVHUFsnz59KtQqZAsEgAAQAAK5EHh/fwexeSHw22+/vb295cId+QABIAAEgIADga7rmqbp+94Rx/Hqjz/++Omnn7yM+0ckR26lXxXx2O73e+l6z/M8jmPz42+aphWK20IR0zQNw9C2LTWc/x2G4Xq9Ph6PLVSydB0ej8flciEtZQRIYy+Xy3mEYRxHmzCso4ClO9on/2mabMJwHo3wAarve6Kbuq594kfH+fz58wevZSOXiMpkK1tORa6gV9frta5rQnAYhoiW7yvJMAzcXpYbJVDXddM0l8tlX03zr+31em2axgeHvu+PSvOPx6PrOh8Qmqa5Xq/+8O4rpqdG1HV9Bvvg7rv7/c62AsTmxkp9uyax8ejjDMQmKZyl0x04njLf7/emadytVt7Wdd113fP5VCV1t7+fz6dOafV//xQQqqo6Hr3plPZfDP4d70oojqcRQVIsdQfEFgTdvA6xXS4X2UkkuwcekXVdp+hn13U08Xi/34dh0C0dx2+a5hhey+Vy4UZVVVXXddu2wzBcLheajuv73ubB1HW9wvxBmKpExb7f77KNdV33fa837X6/t20r4aJw27ZRxW4r0ePxkOpPYxd9ynGaJkVxCISmacZx3FaTytdGcQNAbGGQlyO2cRwvl0vbtlKxpeoeldikDrvH3foYlvCp63rvmiwtlHvcTROVUjA4vPcZuev1ym1xSwIp7TAMHJ8DTdOEqfTGYk/TxBbALQlU8dvtxvEZhANoRFC3SNAIBBBbEIDZPDbyyZoffzTDwEJpCxyS2OS4u+u6xc6YpkkSIWO1a02WBtrTAZVEyCBUVbVfbhvHkQ20/5Y2ZZxOUOya21i827b1nGG+3W5SBii8a41YtANKBAaNcQCxKRAt/MzlsUlbxp3BAb2fqqo6HrFJEPxb93w+2QIyYrTKstB5m3wtV7x9qJ0bIccEjMN+zRnLfOi2IE7IIFRVFYQkQ/ryAI9XQuvPCSUIuyZ4/76QZoSbD2LzB/B7zHLERpv9+r6nndy67fY3/WFNelFsOXsQqsaSDFiUd2rO2C6HmqEjEbxcX6TFRX1dzSanMq0UBv8cbDmv/HyaJq4/WQN//1um5UwOORpWOkWaEdlwEJsC1MLPXMRGeyJ4a4B+LOnwxMYOR9yCv3GIWlXVvswZDzbruvacd5ICKhelpFbvbgzE7B7RinEcZSoOx8mVhHflsFGk/VuhWwzagrRyK1Yuzig5KzQc59giO1oX091ZK0fL5QAzjooej4cOUVVV/obAUb3VXnETojvXqNilh6t58bF1ZV3XnvtdGUZmtRVMW14Q5nk2tsJ/3dQoCVVV7X1flQNnOS6UXb9C74PYHP3ieqVLebTtcxXzone85k9bkz3tl1JZ9vkUmdbdXyXhRn7yhCpt1o+rtm0iLnSl6oWY2Fwu/5k0XVnItMXJ1augMLbCf/HYRmz+85mvanhcuTweojMhihEoPbYDscX1mmH4diRiU3SYTuqEImWz6f576kJLzBtfn3pq2zaU3qTvK3U7dMUub9OCcitEbLtzVhSl4N707EobsR3Jbki54nHt7XZj141BA7FJrJbDudbYFkvSpfxIAqq3zn9kytDt3aYbLVFd16HcZgSztGJzL6QHyhFbKJLpbUnJwdiP/nphFKeqqnbku/ujx4Na2ncGYvOHzhwTxGbGJeSpw5CFKqHRFuzFphsrH7FMaLNoO1pcsUHhyUzG5HsRA1YddkHY7aCAp1IcQAwYCndATkLSlisQmxux5bcgtmWMlmI4iM1z1oVL2LVFM1Y+Yt3bZtHiduUwtmsG5OlsNuueU8o2x313xDbPs96V/puhjOLkvwFnze5OLItHAEz5ILZESLOdY1ushy6mh5mKzEhsuiEgs7gLZ0XvYqp8qEXWtZry2ZfA0HX+9FmDtm39WZn34DAjUiD0cOSiSq4TYRgGAsHnUjFZJaM4hcqSzHCbYT7iIilfV4HSDcfmkUjx0MV0X3bK0WzbEPtss3B6F5+Z2BwC437FO2wVYvOnRnf+u3hrY/fDGA3qBb6UQPFEQWypUoqpyFQEf6S3eVqhW5ON3KAIfZYKl8hE3xUZ52rwzIxi2UPBLNHGFfI0ypIczq9Qh5cXYWT30l7L+q1mleFJSKoDiC21L0BsqQj+SG9cU4mYO7IRW5ZKrpCJbpRDVxmNCzPEcLuYj00EmfcRKKR+KnfNdrj7YO4a3/Wsj1pAbIl6hDW2VAA5/fP57Pue11Rutxu/8gzYpjQjuMGzxBLR6DsPKZ8F3zu7p6DKQ3hJbBEjpJQ6vDwtLztJEPalBYsY2iYhKSGIbRHAhQjw2BYAWvG1UZ+rqvLcTbdiTQsWZXNZDmbXjAga236Ghito6H5/vf8vFCpt5BGM0Q0FsSlwBf8EsQVDViyBbW3J8/BTsXqtmjGfVJWj9aMey1WQNRr0fV2jpbQo4qdxdS1i/iOi6NWS8NYY26gFxJbaFyC2VATzpTdOwdlEP1+x28pJN+57vCYxAlMewjOje36jNaKszSbRhzV07+hmKxxXMRJyx6U8ILY4YP+fCsT2fyxeGtJVmgzcwcaqboxtq4zHnoy93+86nZ9tXY2O/TGpU6BpmuNNV7BLapyEJAUBsbkNxfJbENsyRqvE0E1bxDG4VWpasBDda4m4uKRg/ZKzHsfxer0OH39d1+n93jTNsUcz0zTx5xuHYeAtV5LV6rp22P3kfnhZBouTkFQzEFtqD4HYUhHMkd7oru3l+FoOAL7nYft28GGOrxl7WVpzuiD42ItqNqdc4nDI6UdSk8VJSIoGYku1KiC2VARzpDeurilnNnOUs+k8jHtnjjQj50Ns5KF2XXe8KTgSPh9iIxCC7iHbtGR/VM5nEpLigtg+MIv9H8QWi1y2dCzuctB6JIPugxQfVpUgHG/jzGj6u16vNlI/pPc2TZMOw/1+77pOH+E1TXOMw+mek5CkLCA2H6PhigNic6FT/h2L+7ENuhtIPqwqQTje0SU3CMYtJHVdH2Ym1t18evt4PIwcf4DdQ7yY6sPTIDYfaXHFAbG50Cn8zmjQj+emLKKo27KzsRpDxOZPcvwBzDo30Cdg3EOk3zvlk9VG4jBReXYlx2cxKH1PJm73jxQVfZLhkLuegtDRDfoJWc2ow2e4FtIoKsbLR852+4ztvtCdagfvivKvv1EpjAKT6yGILRJJEJsCnC67/nKvZLXfn/pM7Gl9Ne5E281qZ5uT1C1GVVV7XHtmL9xnEpLEQDcO8NhYQbwCmIr0gil3JN14nZDV9E8igNVI0NgU8kzUSa5fkXpmnJCsqmpfh/yYooIomVOxAIDYpGwsh0FsyxjljqEb9F2vH0TDo5jvpmlOOwOpYGg7GBBkHJU8d/dzmiY26zKwoyEgTyzXdf18Pv27AMTmj5U5JojNjEuxpzzhzrp6KmvFuOqsxq8QYIPIQkKBs53ZN85GVlW1l1lZXkQP9TJBbKlGAMSWimBgesWgn+0UNqGlzDKdk9rdgmOz6Z7b6tyZ7+UtE4NC8Ltw2tjtjhBvEFuqiILYUhEMSa+w2l4GniFNXI4LVlvGaJ4VUWHLXnqtxaduq8XR7ftePFf2uUMnIQlbveGl+x27IiOlWh+Bnm27vzToB74Nzy0fyq6ZczqsbojorZQWZrWzbSFRpEXisPFBIfuafd/r16wsPtFvI6J9VcaEPuK0GAfEtgiROcLJiU3aqdPu/VPs1MZtk1mOPZ7SF1jqj7+4AZw+ZmezvpctNsMwfGBQd10XcT3YOI7caiUQh6pH7+WJops7pf65fuby5EBskR2v9/TGRTOynaZkPNtOI25/w8Rf9wjaUmWqwuufKXtB/Vnt+XzSZ178jwG9sLVKM8l+RXwydO/Epk+l1nUduocCxLbIfyA2s7Jjjc2MS76n0k0J9dVoQiOX7OZrU3BOirn3Z7V5nnlYsAti0wdwZJtCT3Q4iG37OPBEnGKXQyXZQWwb30TDrmpcQMGNftqyCtZGUwJ4bCZUPJ7pCn8Gj03erBHKanyxUKg58OiNVaMoV2IGsdo8z7zesP0vuTgMcWgnOojN3+NftZtFYbqys6UOYmUHnse2HkZ/VwCcPwhii8RUl/Vji+Y8z9JNiWC1eZ4JtF1sbnaIhdTSUFbbF7s72KiqqiBCYjpnSuDAxgnewUZVVQVpvRwXcvMpcOxtR1JlqL2hAyOHPhpfgdiMsCw/PBuxyYPYcazGBmLjsy7uvpcqGsFq+2J3njVVrDD9DCIkiZvMrbSBc/emz9vJcmMItSKIkBwDhaBRgk+1NxVH7/3S/Q5iixSAsxEbi2b0TVGs1UG2ILJ7yiTjvaDR3xVjdg9doyrToIVcubaSiigcaph0faF8doGDrfJVVQWxO8uPgmcomAvdtr3XbD244aWbDGKLlAJd1oMmJSJL/Uj2+PH38av4/yyXKbOIvAKfcXCaMatFENkqxTmslD/7QBmlJci2LjZTRuBjuWyPOBA6OtH1hbKK83plJSlcVCNslQ+9g4P1iGGkQGg+evP5STlh4CIiAnrDQWxhMB5+V+TlcpG7iTLaRxvQbNBTWI1NZJbrAenDxGRu6rpu27a0PjMhpbAaL7Dluh6w73sGoWma0N3nth6Xz40mKVTq5E5aadNTJIoruYJGsArIyoeyEauAzCTXEXX6XjkLQ2jdGMxCAaMUFSqLsoXHFgmvPogL1faIgnk2T+pG0SUrqdJN+J/kYKpzlpGaDn4WvrT1iLTLdV2Hw9AwDtxx6b4me8CcZ4lvoEhG7/v+crlEHEw2VjULu6+jEXKZreu6YRgiBlLGqmb5JJtxT0qWQYNNI0Kfg9hCEVPjH9tj0w06GbWgPccqZPbfjp1s0pgGhdP1zWYgCq3W3G63oAb6RE5nd6Mto+G/vT8j37BVius7W1Wz9NdqGsEjvOghlLGqcVcvKh1pGzesMNRWamL7ySLE2pGuAray6Dk8Njc+5rdyCM9dlUVRzeX9eGozEFVVlSja2EZubHQgfZJEVxKuTMQ42gG4csKBS0kPpGu1Y8wRuvrlRmCeZyl4EZJm7K8sBl1WTOmUiHq6cZCHFyP2T9n6K8uQ1EiZhUY5bpSMbyV0spuytN1Y4jzPIDYbMurzaZrGcbxer7ywITuJwm3bDsNAN3uq6ZN/2zyVEhJciNVCz/0YMbOpcZbMZYnyhIPe1ylP4lwfWTcjW1CV0jOXBVFYykPQYh47OhKuxHVKrt6aGqGMcuq69veHJHoShywbZxw7V0PPGjKwuQJkMG2ySluL0+fkjbUFsRlh+f6Q10UoICXSJ6wk91cDW4VWk2DbKrdPqxfjpMuxTU+qqspr0x0FLTbTHSFdGFa26fM8K9a5bVu3XX4+n0ZWi3B3Xq4RXAF5RwHJ26J/bOyp6OMiXBMZWG2oJws1htu2lXbPrQX8VibJ5WqD2Iwd9P2hQ1y4S/wD6bZM7qnTy3VbGWsjTS/cDKoX7f8ken1CVlOxsLL09Ck+WVBeAZD1TO8sx+AjC8gSBw7T1jvZkLr+fs/95XIZx5E3lYzjaJvVSJ+I5spQwDH4SAdZKYt+0o5cBQSequHJ8GmaLpeLsXpN03A0YxGhD40DCKphdsDddTO2V2K1GM41NgWxWXtKjiPSw1mI7X6/26xtlvwJi6LEZoU75IVttXwvxJbuts7zbHQFyHBkyd/WIfT1Ft1CsY7or8i5KXEaYR2N0KG4Xq82I044GEEImsDUC7U9sS1iZZ/DsFWAnyseG4uEfwAeG4P5n8BquyL/U+qKP6Zp6rqu+fhjK5OR2Gg5wfgNwPSHuaCi4TDB0P34y77WmN5YWw65QLjdbm3bEgjkNKxAbFR5wt82zGKzTqcjCjlPVJN1NMLYZdfrlUw5t9cYILOeV0OV+jyfz77vm48/Cq9PbEqtXvgTHtsLwc9TNBmXomqTp6IlcyH3Ja/HVrK+RfJmV7uoxyar/ng8rtfrMAyN9jcMQ1E+k9VQwutrBH1okAcZDEb0yT+lRRE/yaHMNbMXUYHXJgGxvRb/1NL56OirjEhqAzKlp8nJkxMbHaYut8aWqa/KZgONIHyJ3VdeYyvbtSG5g9hC0Npe3PUH6dvD4HuNTj4+pU6B20qz6KvNx25TF6hW67utm0IDxLap7giuDGyZVOOit4sF983qCcDuvKfm5L47j3eLHoJeXcADCgSxBYC1wahky6DGNEg/+XzsyWefSD2hEZLd+QzGBm1X0SqB2IrCWzxzsmUn91TovqKTszvfL3XaQTopGzQCM/O4Uqs48RQtgE8y5T3vWbTOJTInW5brBEyJGq6QJ7bPsKcS+v3PFXpnzSJ4iLN4K8qatVq5LHhsKwOeszgy6Kfd0UtQ8kUkZ56HfDwev/76a5ZvoOQU0NXzgkbM80wXkZx8c+yRic14WFJ5+OXLl/f399UVMEOB7K6d2aDzzWcnZ3dy13755ZfTrqlId+3MGsHu2lE3+n/79u3nn39WzLj7ZwZrG5tFFZtQTSdvHnG3lt9++vRJzWXzv/mqwJMbdP4aSInrmjYvBf9WkL8Yd+alVmgESQPvnTnkEOf9/Z3ttn/ghYoMYgsDn8S3qqoz7xRgg37m1TU26CffOwONmOeZx3lHvYfovMT29vb2OeTv69evu5uK5Mu8zzxC5w+InHwtgQ36mX1WaIT8rtCxZ3G+ffsWYuC/xw1zGrLGzuaxZa3VFjNjHT62+Lqhl58APbNBZ1Y78xAHGiFZ7eTjPLfdWP8tiM0Lc74H78ysNs8zf7bmzNsE6GbIk++EhEaQ4aDtoHVdr3b/tZfBOn0kEJuvCDQ//k5+cI0+1nNmN2WeZ/oU2ZnXF0lnoBE01Mv7VW7CFv8mIgBiSwQQyYEAEAACQGBbCIDYttUfqA0QAAJAAAgkIgBiSwQQyYEAEAACQGBbCIDYttUfqA0QAAJAAAgkIgBiSwQQyYEAEAACQGBbCIDYttUfqA0QAAJAAAgkIgBiSwQQyYEAEAACQGBbCIDYttUfqA0QAAJAAAgkIgBiSwQQyYEAEAACQGBbCIDYttUfqA0QAAJAAAgkIgBiSwQQyYEAEAACQGBbCIDYttUfqA0QAAJAAAgkIgBiSwQQyYEAEAACQGBbCIDYttUfqA0QAAJAAAgkIgBiSwQQyYEAEAACQGBbCIDYttUfqA0QAAJAAAgkIgBiSwQQyYEAEAACQGBbCPwP6j5y3h8aifkAAAAASUVORK5CYII=;" vertex="1" parent="1">
          <mxGeometry x="1860" y="319" width="292.22" height="50.54" as="geometry" />
        </mxCell>
        <mxCell id="F5iI7IxURP_fGUeo5Xdc-32" value="" style="shape=image;verticalLabelPosition=bottom;labelBackgroundColor=default;verticalAlign=top;aspect=fixed;imageAspect=0;image=data:image/png,iVBORw0KGgoAAAANSUhEUgAAAhoAAABcCAIAAACnRYspAAAVz0lEQVR4Ae1drZLlNhM1DFw4KJVNlXhggMHCpWYLU+VXMA/yG7gqMMAPMHWfwDDEVYONlnke4IKB/uqbzp5o9OMryfKP7L5gRtfXlqWj7j7dLVnOJv4wAowAI8AIMAKLEcgW18AVMAKMACPACDACE9MJCwEjwAgwAoxABASYTiKAyFUwAowAI8AIMJ2wDDACjAAjwAhEQIDpJAKIXAUjwAgwAowA0wnLACPACDACjEAEBJhOIoDIVTACjAAjwAgwnbAMMAKMACPACERAgOkkAohcBSPACDACjADTCcsAI8AIMAKMQAQEmE4igMhVMAKMACPACDCdsAwwAowAI8AIREDgMZ28vLx88fl8+/bt5eUlQtO4CkaAEWAEGIGVEfjnn3++ffvmY+O/vL6+Ghv1mE66rss8P7/88ovxZnyQEWAEGAFG4DgIvL29PT09eRr47Pv378YurEInnz59ent7M96PDzICjAAjwAgcBIHX19effvrpuHTy9PT0999/HwQsbgYjcEoEbrdb/v4ZhuGUHeRObYbAX3/95RugxIlO/vzzzw062fd9/v65jqoMw1DXdVEU1HH8reu6bdtxHKfTfaqqKoqibdvgng3DUJZlnuenxGcGlnEchRDkUdZ1PXNmuj+N49i2bVVV+cdPWZZN01zHMigj2HWdjklVVV3XKWdG//rHH38giEmGTtq2Pb2qyCNd1zX6i9FSCkKIPM+bppEvTL2MXgshvPRhGIamafI8B0p936eOhlf7i6JA389HJ23b5nkO8UBPlYIQoizLi3gSXdcVRTGPiRBiVWFIj06qqpKFZlV0vBR4jZNl4pR7PVNeW2LW6KatTl03iDWrqqrruv/4aZqGojf9qjzPbbc45fGmaWQJOZOOUAZP7l2WZeLjR//13KQyjqPsPVD3P0Lyb5xKP+V5vpJ3lRKdKP4mQXMmVVFMW1mWsmKQq0Wpra7r6rouy1I3nZCYEzhltt7JsDwsCyEulfeQ01wEzml0RNYIIURRFHpSaxxHYzQvhFiSNVV08zhfm6ZR1ISyFIr6931fVRXOFEKswShHp5O+75ummQniTqMqioDKiZo8z2c0wag85LKtITFKO1f9Cul/yBm2E1ZSm1V7vbBy2eaeiU6gES4prGEYcL4sGzN6tBD2XS5XxloI8TDdjUvWCNmPRScUf+TvHwrWZFEwlk9JJ3LoWpblQ0m1KU/qxnQhnaTe/Yfjrp9wu910NTmBjshG0NFJ0qM0QuY0jKLwpUsKi1YuQEKiQ3EsOqnrGl3VCwp8dMIJVEUxCjII7r273+9G47uGD6I0eL2vxh7pgmE8UhTF/X5fr20HrNkmA+5SdMBOTdPUti0Nsa8w40JZQs6R/FSMoQsyyiVZlhVFEXfEj04nmHql9LduX1JXFWU4h2FAH13iEvly294EvvXIde5bBhSyOXhYPmuW/OFYwIVXIEpdRyAGZA28uoNrZUyim9GHQxP3BDl7QWltZaZEv53spAIKIYR+5pIjx6ITmmGu67ppmr7v9RlUXTi8ZGsJUttcC0EJk3ibQdlgyfka+OjDDU0wFs63VNodVWOai1BKWkeMEUae546hp+6SEya6bXGHet8zlaWtWZa5aLcRh5PTycNx0u1L0qqi9HcYBlhJFxFRLp+myZYvDiMnvf6Nj2C4m6ahJ7OU5Y/0Nc/zuq7TNRBRUAVWECEUktYRm4fkGHMbvfIsyxLFRM9AVFXlIj9G8WA6+bCAOl2xMEoA/A6aVXsYwBorQXwDa0KFFK0tdMBx9tUIyBUOQnLkxaAQgERNJw2c0a2mDI/LyNroxJGNXG6x5TkKGu58oFxIsuF+uWMfj5Xsetho2JdzqIrSX6V3tCBSOefhV+URNgDl6MU8rH/LEwAI08kM7PBYaT4WoGHomU4ABQouc9czmO/yk06N7iNrzBlG51Smk10Ew3xT3RBkWeYr93LGDMoTUI+5idseBSBMJzPAk+OJBUsADaPvbnRm7rLXT0a3enl0klz6V89jCyG8EhhK5LoGAkwne6mJet++76H/SuHho0lKXbpBcVc/pap9v6IjTCe2gUCaC5wB0CBF+MlWyZGP26JtR2uoe/QES3KY6HNIjgjIgzuOI+1FtFLqm+lERnvP8gyd+AYoukFhOtlzaFe7t5Lmovvoo5+c6VQA0y2p+xbRtqnE6E/wKW2O/lUf1gN2gekk+rgHVhiRTmz5geR8fKhQci0PFALPyzDQ8jpAgHaO6IQgwRbCtIrPHSdABDTItfJKE7nfbqUz9RDNN9O1UsOUaplOFEB2+2qb8wh4eNWoQlmWJWeUYRmTa/kGYoQ0jrLIAqDBgKYenSwBU0cjQKGWNCDKtbpGR1+UFaWdTCdRYIxTiS40ZBF8o1qjCh3TnZkHDh1hOlGAwu4JeiIUoDGdIBkIKKggB3MKsAf8qk/CH3ZlDdPJgeSn73vdFgQs5tMr4bmTAw1zjKbA89Atoz76l41O9EmXFEMTPdN12F4wncRQ7nh13O93PP5dFMXtdvOt25Y0091Y35q3Px+W0RadDMNA79BKKxW+EElbmouqBWhwya9JJ0anHsupFw7BlpcbVxPoY0qvOq6lT9u2K63gsnWf6cSGTKrHjc8rZVmmZNiT6B4so0wnXdfR69/xK8Ve9D4l38RgEjjIjUSay5Y9l2EhRtFNj1zhWcvG0CRF8dAHVNkNhN7GaDyNVGOzl1EynZxNm4y+TJZlG/spUWCFhhCdGF/sCh8chTO93liHEeNri1wBGgC5IJ0YN8RM0aOapkkf0CzL8Cxa27Y///wzxlre1A4HiVQ26D7Tia6waR8xCl+KmS5ZkSgigXrgtQV1XXddRy8FUjru8jah5EYaafSZGTUFB8WTTa7LAQ3uuk4HAfY3oMIdL7E9P0AOFlIRnz9/LstScRlpdTW0hibw5UA/er+YTqJDumeFMDeyDGVZZvNk92yrw71hFORCXde2mRIlv3GyF59gMkAIMbM9O7CCDFwqOsHEErovhEhU/qdpsml03/fgEjH74nddKdZjFKYTB6uWzilY8ANdOuwiEBdQFctYFIWNSFCbojxZlqWYLkd35MLDNBedrIB21uhkHMe+76WJ5zrPc73vZVnOUK8M7zHLOjuSardtS52d5xLqlKIULpeEocF0EobbEa8yOjIpPm4CcGXrMJPewflU0Dn1BIyCwX2IgwwamZ5TRid6N2UXimYLEk1wyfJsoxN0X18pLl+OsqIUK5kFphMAnnwBEibrVdIahR557XanP7y2kvJsJjGOaS5qD0CDGFyTTqj7eZ4n7UwgJMVoygX32XVdKdaYT2U62cwmrHsj7CwrS9tDT3bdNi2unSzj/FSB8Sa6EnoRkrHOHQ+iOy7OwUXohJJd9NSR/FfZhp3UId1ZNCWqkLXbtlLcJqh6VdH9DKYTG/gpHdddj8Nuw+AF6+12C3uW0wiIY1rAq4UbnIw1r46MeBE6mUfe6F05Ajhf88a/6hwARvF1FvW8WfSonelkY/GIf7v7/a5bkDUi2fhNX7NGHZMUrQkG113z9Y5Hd0LXHLdodWPhE+zvBitlo7X+R0UzdOK7QMu45tiXk360y/yf6cSMS0JHkQmB2jCXTNOk66G7RT7O6GNNjkuai5rNdILhM8YoaYkBBADaTQXfTJdNNsLqAcJKgelEASSxr3oAy1xCQ6jTifwscRLD7Jvmok4xnciDaxSDhHREV3Cik7Au6LKRZVnEJDDTiSx7iZX1cD5MyBLrtltzjXqYED4BaS4CRjcZ10x2ERq6jpA5dl8T5SZua51lFOPgLfh02QiuythhphMjLAkc1HezT3FuYD2gjXoYN7Rfr/HTNCHL4UsGusnwrWHVfm1fuQ4IPZXy8JHY7Zuq39EoxsGPpq4dqzGd6COYwBFsK4uMatwptQQgeNREmx4q+xo9qmaf37EyLSCc0q3nxekExAxloUISKmOLrsLG1EgnEX0sppN97MXCuypi4T5Pu/C+CV1uoxPf9TC7dJnGN+zlHEwnypBhQwGFTiKaUeWOEb8al2PFjU4i4sB0EnHoN6pK4ZKkH/q1Qda2bVEUeZ5XVRWWlLDRyfGpF+uRwjxQphNFqGwWOYn93GxvwwuTDcV0EL8ynfznZ4TBqghcQl/lyF0IEXFVxnFAUJY+hz3SbKOTgwsM0ly0T5/8vLdjWaeTqqqM1ya9N6K7uGKLmv+sxo9SEvkufUA5OnEf/bkzdWQPbh3mOuP/m8IlSeRtfHsp9/GH1mcBDlSidGJrNqCIWEhCd+ilHfRWqKIowvwn3W4QjAFTU77yvPx8Y+PDxo6jkw/DoSMbBuuHShP5IqeAvbaY7rqO9vFOwhvVh5g03zenZ7PLB+dgW7MjsgiqOr7uGH2LgDW+NqFKgk6MHBA2dsaqAnw1m8nkuRMbMsc6Li/w8OKSaZoodxRRaFaFxqb5vvpjs8vHpxP5/awBZbAFCrZKfCFdddz1ymX/CX2hgm+MYhOqJOjEKMlhaTqmkw9ipovFwVXiQ+tDvyCfTuvlfQ0iyVDqdOI7hY4JbdkSpQJCqKRMxmnnRHXEaPtoNH0DFN1uUD1J0Ims/hDmsJYbcQiryiiiHJ0YYTnQQflxRd+4hLpBMhRRaFZFxyjxAfssGY1RKiAEI3wmOjFKQhgN2KpK5clfvf1hkqzXk2VZWKBjFFGmEyMsRzkoP64YxiWwL74O3V4QGGnAd+LEuAVk3P0k9sJn/r4YbrixwauA5m+0wa9G20f98qIBIyZUTypxmz6HFBZnGyH1zRzODD3TyQw4+/8E25rnuW+Oi1qPxKtvsmivzkNzhBB5nkdczBMQ4uwFQvB9jaYzFaOp9BrCL1Mjlb2EWZ53VKpKYouEaZr0fFcAnRgXTAfUowyT/JXpREbjcXlL+YM6hQW21Bk8wxHGRkZEIlal1w/NWRKDoxLZfHi5tHrDlCNbSoJy65mvG9PJ+P6Zac+Sn+BYyIMY8F444yxaQD0zfdlAGGANgIavGhqVYomW6YAwneiYGI50XZfnOYWKQoi4Y2C4n7QD4BIugT8SxTEfx7EoCoBQFMVKWoRbhD0PL++fCN2LuBE3Xh9L8dPtdjOO4C4HN6OTpmnkBWNrBEDGqCLPc1+pM2Z4ojwSv6VZ0NHwTV/rtBrFLMhyznQio2EuG1l9iZU330Y6Kvtluf9H1nOyp1FCWl0to4sjYYAEXRhtg0RlLgmrShqTf4uI9uTKj8Mo29AJBkgGwde66djqRyByeZ7XdR2Q5Tcqb5TQxFjzqmZBCVB8lRpgYtSiOwFMJ7oMq0eMFmS9GU7dicDwBxeWS7nRgmRZFjeDBOgh+gGT8DIZE2JCiCiPcBotCK3eRsv3LRhbGN1qYHQUgQww9/NwyS55GGfblHd5U201R0cbEOF1aoDdfQ5J19/lNgENQyElOpFlC4CuZM4A0DRNNuXx9Q7kOm1lYx/R2eDCct9c8YzklvgmH2x9l4/LmuPFKDqAYSvi5MagPMP07oqN2tYoGFsYV0eMjEXyEPdGhA+sdsDWbbIUyRIbxeJvaRYgKoqr5Jge0OP1sM2q0Qxb4eh0MgxD3/dt2yJhLYsFhLiua9rkztbP4OPG7AHa4DsbNt8M3RTiRgsLy/XHpjzrRWmy5ji23wigFxvND9AMp67h6803Rv6V1MTIJSQ5ZVn2fR+F+HU/F8K5hoOlrPkuy9Ix0JQf2EILYz1msaVZkAdaQcMxa6fL7fLgTGkVfT0cnch5/xkTJsuHXFYudzRDRmhwcKYZUeqnG+kehNyvheXltKdLJJq0niWVGWV+xfD9fpdPprYJIcIyJBh6pbC9JVUagK9kKyHtGIuHBVwSHLTtYkll8RNCPHxtwe12M6ptxAkeY/2Ef0SzgBFHQX4WjW43szxhGAYZOkrMxlUKNGyapiPSyUOVcD8hyrjqdgoNWJ5EwmDMaynuGFBwjIjREmPB6PhTY1bySakZCvh5njdNI7Nj13VlWeq6PaNjxg66HJyh/Cggu7SBzokiLTKM7rfWHWRZJiPGgkqTlNiLltXR/Dw6Mo4jvSlHbhKkNK4ZVSRTvmNEs6CAQF/HcdRJoixLxBzDMBj1IvjxNWMz9INHpBPZgVpYjkIn9/tdt1YkPREd8ygGQpZplGOZe2SxUTMVYtWvSycdMXqaEAylMeR/RRl3Y3tmAhQYNeOFcQ8q0QnQ8CoEN7jrOptGrIc8Pc03I4TUd6M8uKfI3IdpG7Mw0x5j/t8GQqws30x7jhidzDd3r1/v93tVVfmPD5UdE5fubTa+4yjKQfc2zJ/ZNM0PDPLy/bPZuqa6rm0mDBZECLGqOSNwbrcbvSmSHtoHwQRb53nMj/nrMAxlWUIYMDob4G/0uyEDcoEeEQt+eukh8tuYhZlm0CjM64UQYj5RPFO/70+Hi058O7DX+RRsRoxO9urIkvuSJV07OpFbSO9uyT9+yrJsmibKPLN8L8cywspL0YkODhm1DegEt+77vq5rmdXy909ZlnVd7yIPe5mFtm11HKqqatt2PTbFQKDAdAIo/AqkPGsnSf3atPnZlHnYkk427+LjG9JrOTaeO3ncrG3PGIaBwoL15k627VDg3S5uFphOFsnNlr5YYEPXvGwvX2zNPnnXvX2I5t3E9S/gEI0w3j5EW39sPe7AdOIBFk6F8mApBX66VIGUJ+LiyxTRY06dpok5dZr+e3fZZc0C00mIBYPybJmXDGnomteAUzm/sc2ymTUHc2ndxKkXT3uyWWA6CVEkdkinaaLnAC5uQbDjyGUdUtIfjlPxOM6Vl+cwnXjTCSzIQbZp8u5ApAvIgqyxTVOkBm5RDS9GQKYry7JdFlNtMcwO92CzwM+dOIiJdgo9DXvxlTx4SP7Kma5xHH/99VfOdJFjcWWvHK/YubhZiB+dyI8R2cq///778/OzZqgTOAAf5OJLhNmCTNNEocnnz5+vPIVGEwZR3kaVgP5bmnh6s/D8/Pzbb7/Z7Lnx+Pfv341oZcaj8kGgaazXePDp6ent7U2uJIkyphyvbEGwe1LcTZCSEAA0EpufX3lhGzYxu3hocm6z8Pb29unTJ6MZnznIdAJbYS7AjF75cROY0SvPmsCMXnwlApnRiC9ONivesY+e3ixsTScvLy9ffD5fv35NLtmF2YIrO2K08yDt03Xl+Axm9MrxGbbUvXJ8dhGz8Pz8/PXrVx8b/+X19dXoBjxOdhkvO9NBCM2Vp9rkFy1c2YyCS65sRsElV/au2CwEGHmmk3/f7xv8xqEA0A94CfYGv/JqLtqh6+KrubBD15W5BK/9vrhZ8LVUTCf/X8MT8KpqX6APfj5tQn5ll5xeuUE7fh98sNZuXv7+ufKDJrS0j82Cr6QxnfgixuczAowAI8AIGBBgOjGAwocYAUaAEWAEfBFgOvFFjM9nBBgBRoARMCDAdGIAhQ8xAowAI8AI+CLAdOKLGJ/PCDACjAAjYEDgf+o9chL+kjCEAAAAAElFTkSuQmCC;" vertex="1" parent="1">
          <mxGeometry x="1868" y="373.33" width="265.22" height="45.35" as="geometry" />
        </mxCell>
        <mxCell id="F5iI7IxURP_fGUeo5Xdc-33" value="&lt;font style=&quot;font-size: 20px;&quot;&gt;Col&lt;/font&gt;" style="text;html=1;align=center;verticalAlign=middle;whiteSpace=wrap;rounded=0;" vertex="1" parent="1">
          <mxGeometry x="2158" y="322" width="60" height="30" as="geometry" />
        </mxCell>
        <mxCell id="F5iI7IxURP_fGUeo5Xdc-34" value="&lt;font style=&quot;font-size: 20px;&quot;&gt;Value&lt;/font&gt;" style="text;html=1;align=center;verticalAlign=middle;whiteSpace=wrap;rounded=0;" vertex="1" parent="1">
          <mxGeometry x="2158" y="377" width="60" height="30" as="geometry" />
        </mxCell>
        <mxCell id="F5iI7IxURP_fGUeo5Xdc-35" value="" style="shape=image;verticalLabelPosition=bottom;labelBackgroundColor=default;verticalAlign=top;aspect=fixed;imageAspect=0;image=data:image/png,iVBORw0KGgoAAAANSUhEUgAAAd0AAABsCAIAAACgvv9dAAAUeElEQVR4Ae1dO7LcthJl6G3YVdiDAwZagpgpvFVMHCpg4OxGLG2AuQKuYFbA0MnkromUjUMHswC+eurSMYQGSfz4A3sCiZcfoHG6+6DRAMFilJ8gIAgIAoLAkRAojiSMyCIICAKCgCAwCi+LEQgCgoAgcCwEhJePpQ+RRhAQBAQB4WWxAUFAEBAEjoWA8PKx9CHSCAKCgCAgvCw2IAgIAoLAsRAQXj6WPkQaQUAQEASEl8UGBAFBQBA4FgLCy8fSh0gjCAgCgoDwstiAICAICALHQkB4+Vj6EGkEAUFAEBBeFhsQBAQBQeBYCAgvH0sfIo0gIAgIAsLLYgOCgCAgCBwLAeHlY+lDpBEEBAFBQHhZbEAQEAQEgWMhkICXv3z58sHn9/7+/u+//x4LBpFGEBAEBIFpBP75558///zTh+c+fP36dbq8hSsJePnt7a3w/H3+/HlBLrksCAgCgsBhEPjjjz88Sa54f38PFn8fXv706VOwxPKgICAICAIbI/Dx48fMefnDhw9///33xrBKdddEoK7rsiybprlm86XVqRD466+/fv/9dy9qPlC8/O3bt1RATJUzDEPTNOXPv7Zth2GYeiSz88MwtG37MwBlVVWXAsFFp03TkCMppVzuP/g9TdNUVdX3fbCcj8eDOqrn8xlcyPEfvN/v3EHquu77fu2GD8MA7r4ELz+fz7qulVJoNj9QStV1vTb0e9mlCwJFUSilIr13rwamrVf3kDx4GcavlGqaxj0QeTweXdeVZQmXud/vadE+QmkuDrI2RehWlz8vN00DoyTbUkqVP378Utu2RzCUhDK0bWs0Ez42dVCW5e12SyjDuYrSaSgzXobGyQuapmnb9v7zr+u6tm2rquJmU5bluVTpIi2nCIpR1I8fQKPzMcOOGXmuwsv3+113sKIoyrLkmPZ9z2/LI3B+Pp9G0yhcoqxF3/dT7keGWNf1jBnlegkZDAIhV17WucbxWCn1eDxy0vswDEbfQw5iNJMPGjiNxMNyCV6+3+8G4vOBMPfGs4/XDASqqpoavdIgzuqcWcZHMy70eDwMsxFeRv90do8w9N62rWHzi3O8XdcBjeShW/68/Hw+De9y6d/6vtf1pJR6vV6GLs/y5+v10hHoum5R8tvtpj8CKC5Fzcbwgsati9Ad/warZqHixQOlVGakXNe13mql1CJF0Jw5kEw+msyflw3vWuwG4VeGtqqqwqVzHVRVRWanlHLPFOuWoVttchM8Jpg8gBJeLoqiqqrzBihWSzPc3KXXMR5ZwzB078tw3g9jDWIW33AP/SE9vtiLWhW/70kdAV/5rdxUFIVLxL1vqyNr5xkMdGyRJR/hccOq9U535tglijxC67xk4Ba+GLjojKnDlXYModeSIS8bJhhJTGdMLwKB+ZT6lDUbo42c6GmqyeM4Wlu9Rlg0I8N6l2ASOq3MHJdlmWVPfLvdjFa7+AincipEeNnVYg0EA1iV56ZdNOcq3/r3IVgOaDtJZ+TZYcfnwsELaZgN569gGL0EWPtmtKvrOnq16scasJ/+L8uybVtjNcLasm1WvjHpQgu0XGpHVhC+ILzsgtt/98D+CDjfJAYVZBRyLs9E3FfXdXB/biBAYJ4Lh/9sYukIPTGtkTJ8L49WQ6HBJrGE4gmu8xzx1AolozHotg3bSAtmtnkMHuiFTVjx7tE3GWLodbM/QTEwIKVUQJzLEaACHe14s/YmqQiNvd1u3AOFl5OAvHshOuuRMbvP6nO3co+13RuuS5hVfhmhIlgpLEfGndNdhe5qWONOXbUAoSgK3/4JyRC9kKIoAih+jWYmLBMtJYi46oWXE6K9Y1GcHLyCrb7vMeYgUk4bLI/jqDtvVrysA0eEEobd/X43+OgszslpBQ3xShpyBKicsLzQjt44XzXiIKxV5wCeRfXzLYVrhHnEfOHHv8pH0mFqpVdkVxo15snLVujD3smxstJKykhr05xWwMteoa4VgTXGbmmb71saMhgYV3EAwxzYV5K17784L0PRcAffEeTaCso2XjZepI5c4QQ7hiK9eG0DLVqr4LQSLD9HIBJSq8A7nkRHriepOIDCyzvqKEnVj8cDXoADryRGEjEWC8kzXub5oxiP4qx0iiE8sqWwPxwgJFy0D7qBI5ATL2PJlFJKH1QJLzuax4lu4xFbURReab1tGpsnL3MeScvLMaVto9dxHJEwBR3TgcE+i/JYQ4yceBlLpozuSnh50TZOd0NaZliv+Vfh5ZgI9yy65FZiTBwTmfqO2vLOL+OlLz2DQUgKL3OLOvUZa4RxzBgrQ1628kgML1uzIvqA98jGSp/8oRe56roOGLJN5UPcd4A6LD5TGQwS+LK8/Hg8aHP8sxi5o4FZLdnKDLRdXPvj13XdxmtXhJeXdcp5uSiKjfW0LOVqd2CYb+RDTrEoZR4VNM06kXspXh6GgT7Zp48OqTvP5nNiULduyQYvW79XggTgzMbl85bmezVDXsbc+gz6XjBdnJd1RwWkxxz9eakVpm94Jgq5CC/fbjerhUPXYCVr7wW4jn9gbSbyV8a3I6hPon8NKKqqWnskAeMsiuL9/T0Y2yL4STz49vaG9sd8D5u7U+RiW6s6jTkitCKzA90+oJ2AlwYPCAupdeZ7SNyQMuiNxnFER0sxMtSqf+VvGIa+73nwWJbleUeKaDiajNdWdVLmQfEwDMaq57V3PdX9TnjZzh5WXj577GBvKjtrmCMZtO+KDlbq/iewXmpGj9nzMniKNk6ZigGN4f/alLSScVgn/YiXdVKemRXnA/GZmyNbIby8DOBleXlqpd0Mly2jeYA7YPRTGQySMXtepl7WZVRuUHNRFOtR0koGYl0OUBQF7XRKUCw2ajNqholKHmPSHi7Ly9wbIzNCkxBve2Exg0HiXIGX3V9B5l6wyGLbanWhtilexqDBMdrgTrH4iZMFyWyXM+RlbkCRbGIt0FGLNszPcU63DOTj1Pm/uemSwSANZc/LmPJysUhuD+dKZ1kXycGw50dOOj5YW4ln18BBRzuT/LKVRt1x13VAx9YCs+dla6vPPtsJc3exh7x5GdvmcYOfOsMnG7yYfarYbc5zbYJYi6LwWvTJQ+bkOMBQ88ljWAnFxQ+n7MNaYN68bDVi9zHvFJK7n4cqXfyQg5DHeozb7VZVVcDoWycLkJoLkrvrfRxHrk00wZccrCmRADxnYNGhlnjZDhScGYrE8hr7Ayc/q9sEmpwBKcMzHd9UxP0AIQ9ejjFPZGOBSfJQMUa8mWe5NtGEgBiL4+BL7jOi5rnPJx9lSH553gj0qzx9lsdq5cfjQb7k7j/ck4WXeYyyRnZVN8hUx3wpBXg5YEU2xyHtvnR6bJRJvMzdSXjZ3bh5DjGDSHkcRziS+7ibG5LwMmAEqRVFcYpZB2vyIXhbRCsOjuMwF2cUXl5GyaqDgLHPck1738GHGnmQMhjWqzl4ChwkvMwxiQx6NjP5KV52Hz/polo5IawovVgcCy8DiskDqw7y42W+kChh/z8J7voX8HaM7woEzkHCyxyT4JBzfc3/VENaXsZqS/TZaXEQXv5JedY/rLzsPhy2lnm0kzz7dq63BmbwRGbGd8acc5DwMseEiClg/9gZla1xCd2zzqTBwf4UDgGpamtjM+Rla8cYM8Sw8nIqBVi1svFJfX8A6vaz6XUwCPDKYBD+3PeElzkmRHOncAe+iEJ4eZlqUu0nl5yXreo8hSEugz6OWKhADpbBG31oNUIk3wxGrrzc931VVWVZNk0ztUsR0LMeTPHyKab+rI4cFrFN4ZCKFjKMl+GN+oAlJtLh6owpzWruO57URwNlWYa5647yz1SNDEbTNPQBDq9/eQ6ROi1rITNiHOQS0EAHHJCqmuKjU0y36KYOchBeXrDPVPGyvsMs0I9h0ox5WbfUMANdUOqul7niYA9pD2KsaxuE+EqbsHmqU/Oy0TORDYSZ/RQOEi/P2bNON4R+jOdw9w7T5ZzEe1zTfdWrRV3X0ZfP9pDao06uuLR0jNJirMujPRG3TkHhGzKvzUcRTVx+1Cq8l+WjDmtRCT8vl2EeYxxH3jEGe441Wx0wiQSNHuQgmJQxHAkz6C2br+J+oF39YKrILdsVUNcUL/vmH9bmo4CmuT9i9eUwZlgbhzx5GbPwukeFDTGsuvSNMtxNZ5s7dasKoFdy8rNsjBAMadpRV7AYSR6c4mXf+Tqecw/LhyRpVEAhHIcwXtbDGpBMWFHWVuTJy9ZvxoSt/eIUf5YNAaz6HsdRX6ocQMroqHxDrSl5Dns+e14OsGSOSfBSs130zuUPI1NeTtr+KU9exlgbXVnwDnA8QAjgsl1M0FppJCnr+yWG9XNWqY55kvtemA8foXW8LWHfgrKWc6L3QnX7BzkEvBSzNg7Z8rI+VCcFhPEpV4Dv0O8Ibkky6O+PBGchAEiANR8HChdJ0FI48Hl5GeNu+ug1/+SzCyDWcCcg6Hasa6XbeCojIMPJC/HdXH++ddnyMl/FHOZUhgLCCpnSwfP7b+pq2vM6KcfMWxIgaXE4JsVvzMsB7OBuIfDzGNWjEHRURVEEd/BW4TewBHRRaEVARs6gheTJHB3qTPb5hL65Any1jlwqVBhj1hBsHMeu6/SZ/QDL0EtzOQbLxDQBw8AkvDwMQ1mWIPoYwVwQ8L0HiEH7SVptiPF8PquqAghVVflaqVHg1J+oIvjVIe5QCYPEpmkgYVmWvpuZTLWan+cRm+9IWidN2EbatQB6FbnxMleAbyLMMMRUQzaeY6HvpXMbSnVGp5jS/6d3IWSIvqbMG6JbHow7vlheUfAZHTSScA1eJjICAjR9FEydM42F1YX1f9ybEn4wgS9sLYpiPWqO9GsubdpBQ57fK9FN05i18/IrboipolruiuSWK82kcX7RWSDsOB4KbtwkSXzJugHEHHPcvOzHpWpwpaGF5H5OwsDwAoI7g8uo/3i9Xi7NnL/H2kOnXd5gCMBd272v4tKmCtd0IfVacouXqZ2Gd7krwDDEVKGcjvgG3mi0wqgx+M8Ax9bNzjqDRMIk5z6jXsc/rd/TSjhstxqnro41shm32w1VeGkQ+Ss8nnB/KyN4QhWrfgmFr391DM8NPglb1rJohDpL5MnL+nwXqdzFIg21KaVS+clUiLRGgLASKce/b8oT97o3rjoDtugS9/u973vufiShUqrv+1QSIoDVm0/HK40bdJNwrIKTcloymoI6+WSaoXodCvK+RbUajwSvvjUk4X/mz8vGmxRk9PNr3QzqVEolzDBsRkl6cMTdPuZMkpB2e0ri1k9naNoNOXRHZHC/Uio47bALJenkMr9g7vV66TcTMkopx9ByCnDjvOFuOv5JLM2oTv/TwH+maVYoHDs2vUbH40vwMuXRDSKwWuQwDEbeM+F4DSoxrEE3RJdYHuXMH8yYu15jwHESb+EOD0ncc03zCDhenVEHRJo/CM5xWUNRqisJyFMIGOCXZdl1nR4tDsNQ17XhMhTApho4Qjae7QXaa6RuUS8dGFDQyr++72nq9fl83u93rBXRBUvoqoZI+c/76Q1+Pp9cB7TMvvz+41ZY13WSmQ1dDGsnAX0n7IHX4+VgGtJxmErgrj161WWgYyNe1gNhx+PgeNm6x9YGvDyO4+124waP9sIgcaCUSmichhZmbFXvLYynUv1Ji1bRUuBPaBjnV+qcjLZcJV5Gsyki5hapo6+Uqus6Ye4CtePg8XjUdV3++LVtSyIlNP3X62XdwT3+ZKqI6fV6NU3zA4P/f0SDQtckvA+oj3/QdR1AqL//1phssOIAw9Pt3zhelZEh1e12o2+plGVZVRWYegNeHseRTHGeFoiRVw2TgcbleBkt7/teJ4Xy+69pmm1whxg4SM7LKPlEB9fkZUNBREmr5jGMGodhaNu2/PlX13XXdan6YKPGxT8xDbMNL0OeYRg4LWwPxXV5GZo4wgE2wNurVzgCCFg8t3F++SBthxg0w7ElL6Pq4xzQgqgN8svHabIuifCyjsZux3tFB7s1eKJiGTSM4yiDBmxbeNnOSXh5giG2Pb390HXb9jnVhs5p1cy+kyi73kSdk++eAbuKnL7yi3dOwsvpTSqgRLLCy0YHhBg6pzV2hwhQyi6PoHOSjFbC/Td2UWVMpcLLMegle1ZCJBm/kzHRS8kX76HBSpcdOQGBoije39+DiaYIfhIPvr29YYHOt2/fcD77AywJ2mvu+wgIwxDnX8U8gqirykA9dMyC6FXF26ZwmfmEOwgvb2NyllrIFa+2aNcAgl75uez8O6GB1/+unMR4Pp+//fbblZMYx33fD4Hz1MEvv/zy9vaWQViNYPnKrojo4OIr5KSHxguQv/76a5bTDN++ffv06dMUrVnPHyiPYZWPn/z8+bMRdp3rT+wMcPFgGdOeWbqio01iu8u0uwI51n6Q27DZVq7LUT5+/Mh5bP6M8PLWxkl8lHxX362bEVcf+CjhO+hxEu3wNPjoypllhCkZT3uej5e/fPnywed39jwGNlHKNTRwoTdkVK88YsAW4RdPryNMyXjEQHkMH5778PXrVxdXst6TYD2GtdxcT4KUr8xHIOUr89Hj8aC08qpftDu+H4GUrxymJFeT8LIHpNgN48qkjN0w1tjh2kMZe9+K/b6vPPGLzwNdfOI3uTEKL/tBWn7/XXnBMs2802eZ/LDL627aafPiQeIwDDGffcnLIlK2Rng5JZpSliAgCAgC8QgIL8djKCUIAoKAIJASAeHllGhKWYKAICAIxCMgvByPoZQgCAgCgkBKBISXU6IpZQkCgoAgEI+A8HI8hlKCICAICAIpERBeTommlCUICAKCQDwCwsvxGEoJgoAgIAikREB4OSWaUpYgIAgIAvEICC/HYyglCAKCgCCQEgHh5ZRoSlmCgCAgCMQjILwcj6GUIAgIAoJASgSEl1OiKWUJAoKAIBCPgPByPIZSgiAgCAgCKREQXk6JppQlCAgCgkA8AsLL8RhKCYKAICAIpERAeDklmlKWICAICALxCPwP2ee9vovgxjkAAAAASUVORK5CYII=;" vertex="1" parent="1">
          <mxGeometry x="1861" y="260" width="224.93" height="50.93" as="geometry" />
        </mxCell>
        <mxCell id="F5iI7IxURP_fGUeo5Xdc-36" value="&lt;font style=&quot;font-size: 20px;&quot;&gt;Row Offsets&lt;/font&gt;" style="text;html=1;align=center;verticalAlign=middle;whiteSpace=wrap;rounded=0;" vertex="1" parent="1">
          <mxGeometry x="2158" y="268" width="122" height="30" as="geometry" />
        </mxCell>
        <mxCell id="F5iI7IxURP_fGUeo5Xdc-37" value="&lt;font color=&quot;#cc0000&quot;&gt;&lt;font style=&quot;font-size: 28px;&quot;&gt;CSR(&lt;/font&gt;&lt;span style=&quot;background-color: rgb(255, 255, 255); font-family: -apple-system, BlinkMacSystemFont, &amp;quot;Helvetica Neue&amp;quot;, &amp;quot;PingFang SC&amp;quot;, &amp;quot;Microsoft YaHei&amp;quot;, &amp;quot;Source Han Sans SC&amp;quot;, &amp;quot;Noto Sans CJK SC&amp;quot;, &amp;quot;WenQuanYi Micro Hei&amp;quot;, sans-serif; font-size: 24px; text-align: start;&quot;&gt;Compressed Sparse Row)&lt;/span&gt;&lt;/font&gt;" style="text;html=1;align=center;verticalAlign=middle;whiteSpace=wrap;rounded=0;" vertex="1" parent="1">
          <mxGeometry x="1800" y="450" width="397" height="110" as="geometry" />
        </mxCell>
        <mxCell id="F5iI7IxURP_fGUeo5Xdc-40" value="" style="shape=image;verticalLabelPosition=bottom;labelBackgroundColor=default;verticalAlign=top;aspect=fixed;imageAspect=0;image=data:image/png,iVBORw0KGgoAAAANSUhEUgAAAd0AAABsCAIAAACgvv9dAAAUeElEQVR4Ae1dO7LcthJl6G3YVdiDAwZagpgpvFVMHCpg4OxGLG2AuQKuYFbA0MnkromUjUMHswC+eurSMYQGSfz4A3sCiZcfoHG6+6DRAMFilJ8gIAgIAoLAkRAojiSMyCIICAKCgCAwCi+LEQgCgoAgcCwEhJePpQ+RRhAQBAQB4WWxAUFAEBAEjoWA8PKx9CHSCAKCgCAgvCw2IAgIAoLAsRAQXj6WPkQaQUAQEASEl8UGBAFBQBA4FgLCy8fSh0gjCAgCgoDwstiAICAICALHQkB4+Vj6EGkEAUFAEBBeFhsQBAQBQeBYCAgvH0sfIo0gIAgIAsLLYgOCgCAgCBwLAeHlY+lDpBEEBAFBQHhZbEAQEAQEgWMhkICXv3z58sHn9/7+/u+//x4LBpFGEBAEBIFpBP75558///zTh+c+fP36dbq8hSsJePnt7a3w/H3+/HlBLrksCAgCgsBhEPjjjz88Sa54f38PFn8fXv706VOwxPKgICAICAIbI/Dx48fMefnDhw9///33xrBKdddEoK7rsiybprlm86XVqRD466+/fv/9dy9qPlC8/O3bt1RATJUzDEPTNOXPv7Zth2GYeiSz88MwtG37MwBlVVWXAsFFp03TkCMppVzuP/g9TdNUVdX3fbCcj8eDOqrn8xlcyPEfvN/v3EHquu77fu2GD8MA7r4ELz+fz7qulVJoNj9QStV1vTb0e9mlCwJFUSilIr13rwamrVf3kDx4GcavlGqaxj0QeTweXdeVZQmXud/vadE+QmkuDrI2RehWlz8vN00DoyTbUkqVP378Utu2RzCUhDK0bWs0Ez42dVCW5e12SyjDuYrSaSgzXobGyQuapmnb9v7zr+u6tm2rquJmU5bluVTpIi2nCIpR1I8fQKPzMcOOGXmuwsv3+113sKIoyrLkmPZ9z2/LI3B+Pp9G0yhcoqxF3/dT7keGWNf1jBnlegkZDAIhV17WucbxWCn1eDxy0vswDEbfQw5iNJMPGjiNxMNyCV6+3+8G4vOBMPfGs4/XDASqqpoavdIgzuqcWcZHMy70eDwMsxFeRv90do8w9N62rWHzi3O8XdcBjeShW/68/Hw+De9y6d/6vtf1pJR6vV6GLs/y5+v10hHoum5R8tvtpj8CKC5Fzcbwgsati9Ad/warZqHixQOlVGakXNe13mql1CJF0Jw5kEw+msyflw3vWuwG4VeGtqqqwqVzHVRVRWanlHLPFOuWoVttchM8Jpg8gBJeLoqiqqrzBihWSzPc3KXXMR5ZwzB078tw3g9jDWIW33AP/SE9vtiLWhW/70kdAV/5rdxUFIVLxL1vqyNr5xkMdGyRJR/hccOq9U535tglijxC67xk4Ba+GLjojKnDlXYModeSIS8bJhhJTGdMLwKB+ZT6lDUbo42c6GmqyeM4Wlu9Rlg0I8N6l2ASOq3MHJdlmWVPfLvdjFa7+AincipEeNnVYg0EA1iV56ZdNOcq3/r3IVgOaDtJZ+TZYcfnwsELaZgN569gGL0EWPtmtKvrOnq16scasJ/+L8uybVtjNcLasm1WvjHpQgu0XGpHVhC+ILzsgtt/98D+CDjfJAYVZBRyLs9E3FfXdXB/biBAYJ4Lh/9sYukIPTGtkTJ8L49WQ6HBJrGE4gmu8xzx1AolozHotg3bSAtmtnkMHuiFTVjx7tE3GWLodbM/QTEwIKVUQJzLEaACHe14s/YmqQiNvd1u3AOFl5OAvHshOuuRMbvP6nO3co+13RuuS5hVfhmhIlgpLEfGndNdhe5qWONOXbUAoSgK3/4JyRC9kKIoAih+jWYmLBMtJYi46oWXE6K9Y1GcHLyCrb7vMeYgUk4bLI/jqDtvVrysA0eEEobd/X43+OgszslpBQ3xShpyBKicsLzQjt44XzXiIKxV5wCeRfXzLYVrhHnEfOHHv8pH0mFqpVdkVxo15snLVujD3smxstJKykhr05xWwMteoa4VgTXGbmmb71saMhgYV3EAwxzYV5K17784L0PRcAffEeTaCso2XjZepI5c4QQ7hiK9eG0DLVqr4LQSLD9HIBJSq8A7nkRHriepOIDCyzvqKEnVj8cDXoADryRGEjEWC8kzXub5oxiP4qx0iiE8sqWwPxwgJFy0D7qBI5ATL2PJlFJKH1QJLzuax4lu4xFbURReab1tGpsnL3MeScvLMaVto9dxHJEwBR3TgcE+i/JYQ4yceBlLpozuSnh50TZOd0NaZliv+Vfh5ZgI9yy65FZiTBwTmfqO2vLOL+OlLz2DQUgKL3OLOvUZa4RxzBgrQ1628kgML1uzIvqA98jGSp/8oRe56roOGLJN5UPcd4A6LD5TGQwS+LK8/Hg8aHP8sxi5o4FZLdnKDLRdXPvj13XdxmtXhJeXdcp5uSiKjfW0LOVqd2CYb+RDTrEoZR4VNM06kXspXh6GgT7Zp48OqTvP5nNiULduyQYvW79XggTgzMbl85bmezVDXsbc+gz6XjBdnJd1RwWkxxz9eakVpm94Jgq5CC/fbjerhUPXYCVr7wW4jn9gbSbyV8a3I6hPon8NKKqqWnskAeMsiuL9/T0Y2yL4STz49vaG9sd8D5u7U+RiW6s6jTkitCKzA90+oJ2AlwYPCAupdeZ7SNyQMuiNxnFER0sxMtSqf+VvGIa+73nwWJbleUeKaDiajNdWdVLmQfEwDMaq57V3PdX9TnjZzh5WXj577GBvKjtrmCMZtO+KDlbq/iewXmpGj9nzMniKNk6ZigGN4f/alLSScVgn/YiXdVKemRXnA/GZmyNbIby8DOBleXlqpd0Mly2jeYA7YPRTGQySMXtepl7WZVRuUHNRFOtR0koGYl0OUBQF7XRKUCw2ajNqholKHmPSHi7Ly9wbIzNCkxBve2Exg0HiXIGX3V9B5l6wyGLbanWhtilexqDBMdrgTrH4iZMFyWyXM+RlbkCRbGIt0FGLNszPcU63DOTj1Pm/uemSwSANZc/LmPJysUhuD+dKZ1kXycGw50dOOj5YW4ln18BBRzuT/LKVRt1x13VAx9YCs+dla6vPPtsJc3exh7x5GdvmcYOfOsMnG7yYfarYbc5zbYJYi6LwWvTJQ+bkOMBQ88ljWAnFxQ+n7MNaYN68bDVi9zHvFJK7n4cqXfyQg5DHeozb7VZVVcDoWycLkJoLkrvrfRxHrk00wZccrCmRADxnYNGhlnjZDhScGYrE8hr7Ayc/q9sEmpwBKcMzHd9UxP0AIQ9ejjFPZGOBSfJQMUa8mWe5NtGEgBiL4+BL7jOi5rnPJx9lSH553gj0qzx9lsdq5cfjQb7k7j/ck4WXeYyyRnZVN8hUx3wpBXg5YEU2xyHtvnR6bJRJvMzdSXjZ3bh5DjGDSHkcRziS+7ibG5LwMmAEqRVFcYpZB2vyIXhbRCsOjuMwF2cUXl5GyaqDgLHPck1738GHGnmQMhjWqzl4ChwkvMwxiQx6NjP5KV52Hz/polo5IawovVgcCy8DiskDqw7y42W+kChh/z8J7voX8HaM7woEzkHCyxyT4JBzfc3/VENaXsZqS/TZaXEQXv5JedY/rLzsPhy2lnm0kzz7dq63BmbwRGbGd8acc5DwMseEiClg/9gZla1xCd2zzqTBwf4UDgGpamtjM+Rla8cYM8Sw8nIqBVi1svFJfX8A6vaz6XUwCPDKYBD+3PeElzkmRHOncAe+iEJ4eZlqUu0nl5yXreo8hSEugz6OWKhADpbBG31oNUIk3wxGrrzc931VVWVZNk0ztUsR0LMeTPHyKab+rI4cFrFN4ZCKFjKMl+GN+oAlJtLh6owpzWruO57URwNlWYa5647yz1SNDEbTNPQBDq9/eQ6ROi1rITNiHOQS0EAHHJCqmuKjU0y36KYOchBeXrDPVPGyvsMs0I9h0ox5WbfUMANdUOqul7niYA9pD2KsaxuE+EqbsHmqU/Oy0TORDYSZ/RQOEi/P2bNON4R+jOdw9w7T5ZzEe1zTfdWrRV3X0ZfP9pDao06uuLR0jNJirMujPRG3TkHhGzKvzUcRTVx+1Cq8l+WjDmtRCT8vl2EeYxxH3jEGe441Wx0wiQSNHuQgmJQxHAkz6C2br+J+oF39YKrILdsVUNcUL/vmH9bmo4CmuT9i9eUwZlgbhzx5GbPwukeFDTGsuvSNMtxNZ5s7dasKoFdy8rNsjBAMadpRV7AYSR6c4mXf+Tqecw/LhyRpVEAhHIcwXtbDGpBMWFHWVuTJy9ZvxoSt/eIUf5YNAaz6HsdRX6ocQMroqHxDrSl5Dns+e14OsGSOSfBSs130zuUPI1NeTtr+KU9exlgbXVnwDnA8QAjgsl1M0FppJCnr+yWG9XNWqY55kvtemA8foXW8LWHfgrKWc6L3QnX7BzkEvBSzNg7Z8rI+VCcFhPEpV4Dv0O8Ibkky6O+PBGchAEiANR8HChdJ0FI48Hl5GeNu+ug1/+SzCyDWcCcg6Hasa6XbeCojIMPJC/HdXH++ddnyMl/FHOZUhgLCCpnSwfP7b+pq2vM6KcfMWxIgaXE4JsVvzMsB7OBuIfDzGNWjEHRURVEEd/BW4TewBHRRaEVARs6gheTJHB3qTPb5hL65Any1jlwqVBhj1hBsHMeu6/SZ/QDL0EtzOQbLxDQBw8AkvDwMQ1mWIPoYwVwQ8L0HiEH7SVptiPF8PquqAghVVflaqVHg1J+oIvjVIe5QCYPEpmkgYVmWvpuZTLWan+cRm+9IWidN2EbatQB6FbnxMleAbyLMMMRUQzaeY6HvpXMbSnVGp5jS/6d3IWSIvqbMG6JbHow7vlheUfAZHTSScA1eJjICAjR9FEydM42F1YX1f9ybEn4wgS9sLYpiPWqO9GsubdpBQ57fK9FN05i18/IrboipolruiuSWK82kcX7RWSDsOB4KbtwkSXzJugHEHHPcvOzHpWpwpaGF5H5OwsDwAoI7g8uo/3i9Xi7NnL/H2kOnXd5gCMBd272v4tKmCtd0IfVacouXqZ2Gd7krwDDEVKGcjvgG3mi0wqgx+M8Ax9bNzjqDRMIk5z6jXsc/rd/TSjhstxqnro41shm32w1VeGkQ+Ss8nnB/KyN4QhWrfgmFr391DM8NPglb1rJohDpL5MnL+nwXqdzFIg21KaVS+clUiLRGgLASKce/b8oT97o3rjoDtugS9/u973vufiShUqrv+1QSIoDVm0/HK40bdJNwrIKTcloymoI6+WSaoXodCvK+RbUajwSvvjUk4X/mz8vGmxRk9PNr3QzqVEolzDBsRkl6cMTdPuZMkpB2e0ri1k9naNoNOXRHZHC/Uio47bALJenkMr9g7vV66TcTMkopx9ByCnDjvOFuOv5JLM2oTv/TwH+maVYoHDs2vUbH40vwMuXRDSKwWuQwDEbeM+F4DSoxrEE3RJdYHuXMH8yYu15jwHESb+EOD0ncc03zCDhenVEHRJo/CM5xWUNRqisJyFMIGOCXZdl1nR4tDsNQ17XhMhTApho4Qjae7QXaa6RuUS8dGFDQyr++72nq9fl83u93rBXRBUvoqoZI+c/76Q1+Pp9cB7TMvvz+41ZY13WSmQ1dDGsnAX0n7IHX4+VgGtJxmErgrj161WWgYyNe1gNhx+PgeNm6x9YGvDyO4+124waP9sIgcaCUSmichhZmbFXvLYynUv1Ji1bRUuBPaBjnV+qcjLZcJV5Gsyki5hapo6+Uqus6Ye4CtePg8XjUdV3++LVtSyIlNP3X62XdwT3+ZKqI6fV6NU3zA4P/f0SDQtckvA+oj3/QdR1AqL//1phssOIAw9Pt3zhelZEh1e12o2+plGVZVRWYegNeHseRTHGeFoiRVw2TgcbleBkt7/teJ4Xy+69pmm1whxg4SM7LKPlEB9fkZUNBREmr5jGMGodhaNu2/PlX13XXdan6YKPGxT8xDbMNL0OeYRg4LWwPxXV5GZo4wgE2wNurVzgCCFg8t3F++SBthxg0w7ElL6Pq4xzQgqgN8svHabIuifCyjsZux3tFB7s1eKJiGTSM4yiDBmxbeNnOSXh5giG2Pb390HXb9jnVhs5p1cy+kyi73kSdk++eAbuKnL7yi3dOwsvpTSqgRLLCy0YHhBg6pzV2hwhQyi6PoHOSjFbC/Td2UWVMpcLLMegle1ZCJBm/kzHRS8kX76HBSpcdOQGBoije39+DiaYIfhIPvr29YYHOt2/fcD77AywJ2mvu+wgIwxDnX8U8gqirykA9dMyC6FXF26ZwmfmEOwgvb2NyllrIFa+2aNcAgl75uez8O6GB1/+unMR4Pp+//fbblZMYx33fD4Hz1MEvv/zy9vaWQViNYPnKrojo4OIr5KSHxguQv/76a5bTDN++ffv06dMUrVnPHyiPYZWPn/z8+bMRdp3rT+wMcPFgGdOeWbqio01iu8u0uwI51n6Q27DZVq7LUT5+/Mh5bP6M8PLWxkl8lHxX362bEVcf+CjhO+hxEu3wNPjoypllhCkZT3uej5e/fPnywed39jwGNlHKNTRwoTdkVK88YsAW4RdPryNMyXjEQHkMH5778PXrVxdXst6TYD2GtdxcT4KUr8xHIOUr89Hj8aC08qpftDu+H4GUrxymJFeT8LIHpNgN48qkjN0w1tjh2kMZe9+K/b6vPPGLzwNdfOI3uTEKL/tBWn7/XXnBMs2802eZ/LDL627aafPiQeIwDDGffcnLIlK2Rng5JZpSliAgCAgC8QgIL8djKCUIAoKAIJASAeHllGhKWYKAICAIxCMgvByPoZQgCAgCgkBKBISXU6IpZQkCgoAgEI+A8HI8hlKCICAICAIpERBeTommlCUICAKCQDwCwsvxGEoJgoAgIAikREB4OSWaUpYgIAgIAvEICC/HYyglCAKCgCCQEgHh5ZRoSlmCgCAgCMQjILwcj6GUIAgIAoJASgSEl1OiKWUJAoKAIBCPgPByPIZSgiAgCAgCKREQXk6JppQlCAgCgkA8AsLL8RhKCYKAICAIpERAeDklmlKWICAICALxCPwP2ee9vovgxjkAAAAASUVORK5CYII=;" vertex="1" parent="1">
          <mxGeometry x="1394.07" y="610" width="224.93" height="50.93" as="geometry" />
        </mxCell>
        <mxCell id="F5iI7IxURP_fGUeo5Xdc-41" value="" style="shape=image;verticalLabelPosition=bottom;labelBackgroundColor=default;verticalAlign=top;aspect=fixed;imageAspect=0;image=data:image/png,iVBORw0KGgoAAAANSUhEUgAAAkgAAABlCAIAAAA50Ys5AAAWIklEQVR4Ae1du63kxhJlCApBEkBA5gZAY801lzHQkSmDKTCDAdaUMQEIY11zEiBwbVryRgFMAHzYLd16pf6xvxx+zjV2e8j+nq6q09U/VjP+gAAQAAJAAAgcCIHqQG1BU4AAEAACQAAIzCA2CAEQAAJAAAgcCgEQ26G6E40BAkAACAABEBtkAAgAASAABA6FAIjtUN2JxgABIAAEgACIDTIABIAAEAACh0IAxHao7kRjgAAQAAJAAMQGGQACQAAIAIFDIQBiO1R3ojFAAAgAASCQjdje3t4+h/z9/vvvf//9NzoACAABIAAEto/AX3/99fXr1xAb//mFjcpGbH/++WcV+Pfly5cXthxFAwEgAASAgA8C//zzT6B1/x7dJ+dCcbKVHUFsnz59KtQqZAsEgAAQAAK5EHh/fwexeSHw22+/vb295cId+QABIAAEgIADga7rmqbp+94Rx/Hqjz/++Omnn7yM+0ckR26lXxXx2O73e+l6z/M8jmPz42+aphWK20IR0zQNw9C2LTWc/x2G4Xq9Ph6PLVSydB0ej8flciEtZQRIYy+Xy3mEYRxHmzCso4ClO9on/2mabMJwHo3wAarve6Kbuq594kfH+fz58wevZSOXiMpkK1tORa6gV9frta5rQnAYhoiW7yvJMAzcXpYbJVDXddM0l8tlX03zr+31em2axgeHvu+PSvOPx6PrOh8Qmqa5Xq/+8O4rpqdG1HV9Bvvg7rv7/c62AsTmxkp9uyax8ejjDMQmKZyl0x04njLf7/emadytVt7Wdd113fP5VCV1t7+fz6dOafV//xQQqqo6Hr3plPZfDP4d70oojqcRQVIsdQfEFgTdvA6xXS4X2UkkuwcekXVdp+hn13U08Xi/34dh0C0dx2+a5hhey+Vy4UZVVVXXddu2wzBcLheajuv73ubB1HW9wvxBmKpExb7f77KNdV33fa837X6/t20r4aJw27ZRxW4r0ePxkOpPYxd9ynGaJkVxCISmacZx3FaTytdGcQNAbGGQlyO2cRwvl0vbtlKxpeoeldikDrvH3foYlvCp63rvmiwtlHvcTROVUjA4vPcZuev1ym1xSwIp7TAMHJ8DTdOEqfTGYk/TxBbALQlU8dvtxvEZhANoRFC3SNAIBBBbEIDZPDbyyZoffzTDwEJpCxyS2OS4u+u6xc6YpkkSIWO1a02WBtrTAZVEyCBUVbVfbhvHkQ20/5Y2ZZxOUOya21i827b1nGG+3W5SBii8a41YtANKBAaNcQCxKRAt/MzlsUlbxp3BAb2fqqo6HrFJEPxb93w+2QIyYrTKstB5m3wtV7x9qJ0bIccEjMN+zRnLfOi2IE7IIFRVFYQkQ/ryAI9XQuvPCSUIuyZ4/76QZoSbD2LzB/B7zHLERpv9+r6nndy67fY3/WFNelFsOXsQqsaSDFiUd2rO2C6HmqEjEbxcX6TFRX1dzSanMq0UBv8cbDmv/HyaJq4/WQN//1um5UwOORpWOkWaEdlwEJsC1MLPXMRGeyJ4a4B+LOnwxMYOR9yCv3GIWlXVvswZDzbruvacd5ICKhelpFbvbgzE7B7RinEcZSoOx8mVhHflsFGk/VuhWwzagrRyK1Yuzig5KzQc59giO1oX091ZK0fL5QAzjooej4cOUVVV/obAUb3VXnETojvXqNilh6t58bF1ZV3XnvtdGUZmtRVMW14Q5nk2tsJ/3dQoCVVV7X1flQNnOS6UXb9C74PYHP3ieqVLebTtcxXzone85k9bkz3tl1JZ9vkUmdbdXyXhRn7yhCpt1o+rtm0iLnSl6oWY2Fwu/5k0XVnItMXJ1augMLbCf/HYRmz+85mvanhcuTweojMhihEoPbYDscX1mmH4diRiU3SYTuqEImWz6f576kJLzBtfn3pq2zaU3qTvK3U7dMUub9OCcitEbLtzVhSl4N707EobsR3Jbki54nHt7XZj141BA7FJrJbDudbYFkvSpfxIAqq3zn9kytDt3aYbLVFd16HcZgSztGJzL6QHyhFbKJLpbUnJwdiP/nphFKeqqnbku/ujx4Na2ncGYvOHzhwTxGbGJeSpw5CFKqHRFuzFphsrH7FMaLNoO1pcsUHhyUzG5HsRA1YddkHY7aCAp1IcQAwYCndATkLSlisQmxux5bcgtmWMlmI4iM1z1oVL2LVFM1Y+Yt3bZtHiduUwtmsG5OlsNuueU8o2x313xDbPs96V/puhjOLkvwFnze5OLItHAEz5ILZESLOdY1ushy6mh5mKzEhsuiEgs7gLZ0XvYqp8qEXWtZry2ZfA0HX+9FmDtm39WZn34DAjUiD0cOSiSq4TYRgGAsHnUjFZJaM4hcqSzHCbYT7iIilfV4HSDcfmkUjx0MV0X3bK0WzbEPtss3B6F5+Z2BwC437FO2wVYvOnRnf+u3hrY/fDGA3qBb6UQPFEQWypUoqpyFQEf6S3eVqhW5ON3KAIfZYKl8hE3xUZ52rwzIxi2UPBLNHGFfI0ypIczq9Qh5cXYWT30l7L+q1mleFJSKoDiC21L0BsqQj+SG9cU4mYO7IRW5ZKrpCJbpRDVxmNCzPEcLuYj00EmfcRKKR+KnfNdrj7YO4a3/Wsj1pAbIl6hDW2VAA5/fP57Pue11Rutxu/8gzYpjQjuMGzxBLR6DsPKZ8F3zu7p6DKQ3hJbBEjpJQ6vDwtLztJEPalBYsY2iYhKSGIbRHAhQjw2BYAWvG1UZ+rqvLcTbdiTQsWZXNZDmbXjAga236Ghito6H5/vf8vFCpt5BGM0Q0FsSlwBf8EsQVDViyBbW3J8/BTsXqtmjGfVJWj9aMey1WQNRr0fV2jpbQo4qdxdS1i/iOi6NWS8NYY26gFxJbaFyC2VATzpTdOwdlEP1+x28pJN+57vCYxAlMewjOje36jNaKszSbRhzV07+hmKxxXMRJyx6U8ILY4YP+fCsT2fyxeGtJVmgzcwcaqboxtq4zHnoy93+86nZ9tXY2O/TGpU6BpmuNNV7BLapyEJAUBsbkNxfJbENsyRqvE0E1bxDG4VWpasBDda4m4uKRg/ZKzHsfxer0OH39d1+n93jTNsUcz0zTx5xuHYeAtV5LV6rp22P3kfnhZBouTkFQzEFtqD4HYUhHMkd7oru3l+FoOAL7nYft28GGOrxl7WVpzuiD42ItqNqdc4nDI6UdSk8VJSIoGYku1KiC2VARzpDeurilnNnOUs+k8jHtnjjQj50Ns5KF2XXe8KTgSPh9iIxCC7iHbtGR/VM5nEpLigtg+MIv9H8QWi1y2dCzuctB6JIPugxQfVpUgHG/jzGj6u16vNlI/pPc2TZMOw/1+77pOH+E1TXOMw+mek5CkLCA2H6PhigNic6FT/h2L+7ENuhtIPqwqQTje0SU3CMYtJHVdH2Ym1t18evt4PIwcf4DdQ7yY6sPTIDYfaXHFAbG50Cn8zmjQj+emLKKo27KzsRpDxOZPcvwBzDo30Cdg3EOk3zvlk9VG4jBReXYlx2cxKH1PJm73jxQVfZLhkLuegtDRDfoJWc2ow2e4FtIoKsbLR852+4ztvtCdagfvivKvv1EpjAKT6yGILRJJEJsCnC67/nKvZLXfn/pM7Gl9Ne5E281qZ5uT1C1GVVV7XHtmL9xnEpLEQDcO8NhYQbwCmIr0gil3JN14nZDV9E8igNVI0NgU8kzUSa5fkXpmnJCsqmpfh/yYooIomVOxAIDYpGwsh0FsyxjljqEb9F2vH0TDo5jvpmlOOwOpYGg7GBBkHJU8d/dzmiY26zKwoyEgTyzXdf18Pv27AMTmj5U5JojNjEuxpzzhzrp6KmvFuOqsxq8QYIPIQkKBs53ZN85GVlW1l1lZXkQP9TJBbKlGAMSWimBgesWgn+0UNqGlzDKdk9rdgmOz6Z7b6tyZ7+UtE4NC8Ltw2tjtjhBvEFuqiILYUhEMSa+w2l4GniFNXI4LVlvGaJ4VUWHLXnqtxaduq8XR7ftePFf2uUMnIQlbveGl+x27IiOlWh+Bnm27vzToB74Nzy0fyq6ZczqsbojorZQWZrWzbSFRpEXisPFBIfuafd/r16wsPtFvI6J9VcaEPuK0GAfEtgiROcLJiU3aqdPu/VPs1MZtk1mOPZ7SF1jqj7+4AZw+ZmezvpctNsMwfGBQd10XcT3YOI7caiUQh6pH7+WJops7pf65fuby5EBskR2v9/TGRTOynaZkPNtOI25/w8Rf9wjaUmWqwuufKXtB/Vnt+XzSZ178jwG9sLVKM8l+RXwydO/Epk+l1nUduocCxLbIfyA2s7Jjjc2MS76n0k0J9dVoQiOX7OZrU3BOirn3Z7V5nnlYsAti0wdwZJtCT3Q4iG37OPBEnGKXQyXZQWwb30TDrmpcQMGNftqyCtZGUwJ4bCZUPJ7pCn8Gj03erBHKanyxUKg58OiNVaMoV2IGsdo8z7zesP0vuTgMcWgnOojN3+NftZtFYbqys6UOYmUHnse2HkZ/VwCcPwhii8RUl/Vji+Y8z9JNiWC1eZ4JtF1sbnaIhdTSUFbbF7s72KiqqiBCYjpnSuDAxgnewUZVVQVpvRwXcvMpcOxtR1JlqL2hAyOHPhpfgdiMsCw/PBuxyYPYcazGBmLjsy7uvpcqGsFq+2J3njVVrDD9DCIkiZvMrbSBc/emz9vJcmMItSKIkBwDhaBRgk+1NxVH7/3S/Q5iixSAsxEbi2b0TVGs1UG2ILJ7yiTjvaDR3xVjdg9doyrToIVcubaSiigcaph0faF8doGDrfJVVQWxO8uPgmcomAvdtr3XbD244aWbDGKLlAJd1oMmJSJL/Uj2+PH38av4/yyXKbOIvAKfcXCaMatFENkqxTmslD/7QBmlJci2LjZTRuBjuWyPOBA6OtH1hbKK83plJSlcVCNslQ+9g4P1iGGkQGg+evP5STlh4CIiAnrDQWxhMB5+V+TlcpG7iTLaRxvQbNBTWI1NZJbrAenDxGRu6rpu27a0PjMhpbAaL7Dluh6w73sGoWma0N3nth6Xz40mKVTq5E5aadNTJIoruYJGsArIyoeyEauAzCTXEXX6XjkLQ2jdGMxCAaMUFSqLsoXHFgmvPogL1faIgnk2T+pG0SUrqdJN+J/kYKpzlpGaDn4WvrT1iLTLdV2Hw9AwDtxx6b4me8CcZ4lvoEhG7/v+crlEHEw2VjULu6+jEXKZreu6YRgiBlLGqmb5JJtxT0qWQYNNI0Kfg9hCEVPjH9tj0w06GbWgPccqZPbfjp1s0pgGhdP1zWYgCq3W3G63oAb6RE5nd6Mto+G/vT8j37BVius7W1Wz9NdqGsEjvOghlLGqcVcvKh1pGzesMNRWamL7ySLE2pGuAray6Dk8Njc+5rdyCM9dlUVRzeX9eGozEFVVlSja2EZubHQgfZJEVxKuTMQ42gG4csKBS0kPpGu1Y8wRuvrlRmCeZyl4EZJm7K8sBl1WTOmUiHq6cZCHFyP2T9n6K8uQ1EiZhUY5bpSMbyV0spuytN1Y4jzPIDYbMurzaZrGcbxer7ywITuJwm3bDsNAN3uq6ZN/2zyVEhJciNVCz/0YMbOpcZbMZYnyhIPe1ylP4lwfWTcjW1CV0jOXBVFYykPQYh47OhKuxHVKrt6aGqGMcuq69veHJHoShywbZxw7V0PPGjKwuQJkMG2ySluL0+fkjbUFsRlh+f6Q10UoICXSJ6wk91cDW4VWk2DbKrdPqxfjpMuxTU+qqspr0x0FLTbTHSFdGFa26fM8K9a5bVu3XX4+n0ZWi3B3Xq4RXAF5RwHJ26J/bOyp6OMiXBMZWG2oJws1htu2lXbPrQX8VibJ5WqD2Iwd9P2hQ1y4S/wD6bZM7qnTy3VbGWsjTS/cDKoX7f8ken1CVlOxsLL09Ck+WVBeAZD1TO8sx+AjC8gSBw7T1jvZkLr+fs/95XIZx5E3lYzjaJvVSJ+I5spQwDH4SAdZKYt+0o5cBQSequHJ8GmaLpeLsXpN03A0YxGhD40DCKphdsDddTO2V2K1GM41NgWxWXtKjiPSw1mI7X6/26xtlvwJi6LEZoU75IVttXwvxJbuts7zbHQFyHBkyd/WIfT1Ft1CsY7or8i5KXEaYR2N0KG4Xq82I044GEEImsDUC7U9sS1iZZ/DsFWAnyseG4uEfwAeG4P5n8BquyL/U+qKP6Zp6rqu+fhjK5OR2Gg5wfgNwPSHuaCi4TDB0P34y77WmN5YWw65QLjdbm3bEgjkNKxAbFR5wt82zGKzTqcjCjlPVJN1NMLYZdfrlUw5t9cYILOeV0OV+jyfz77vm48/Cq9PbEqtXvgTHtsLwc9TNBmXomqTp6IlcyH3Ja/HVrK+RfJmV7uoxyar/ng8rtfrMAyN9jcMQ1E+k9VQwutrBH1okAcZDEb0yT+lRRE/yaHMNbMXUYHXJgGxvRb/1NL56OirjEhqAzKlp8nJkxMbHaYut8aWqa/KZgONIHyJ3VdeYyvbtSG5g9hC0Npe3PUH6dvD4HuNTj4+pU6B20qz6KvNx25TF6hW67utm0IDxLap7giuDGyZVOOit4sF983qCcDuvKfm5L47j3eLHoJeXcADCgSxBYC1wahky6DGNEg/+XzsyWefSD2hEZLd+QzGBm1X0SqB2IrCWzxzsmUn91TovqKTszvfL3XaQTopGzQCM/O4Uqs48RQtgE8y5T3vWbTOJTInW5brBEyJGq6QJ7bPsKcS+v3PFXpnzSJ4iLN4K8qatVq5LHhsKwOeszgy6Kfd0UtQ8kUkZ56HfDwev/76a5ZvoOQU0NXzgkbM80wXkZx8c+yRic14WFJ5+OXLl/f399UVMEOB7K6d2aDzzWcnZ3dy13755ZfTrqlId+3MGsHu2lE3+n/79u3nn39WzLj7ZwZrG5tFFZtQTSdvHnG3lt9++vRJzWXzv/mqwJMbdP4aSInrmjYvBf9WkL8Yd+alVmgESQPvnTnkEOf9/Z3ttn/ghYoMYgsDn8S3qqoz7xRgg37m1TU26CffOwONmOeZx3lHvYfovMT29vb2OeTv69evu5uK5Mu8zzxC5w+InHwtgQ36mX1WaIT8rtCxZ3G+ffsWYuC/xw1zGrLGzuaxZa3VFjNjHT62+Lqhl58APbNBZ1Y78xAHGiFZ7eTjPLfdWP8tiM0Lc74H78ysNs8zf7bmzNsE6GbIk++EhEaQ4aDtoHVdr3b/tZfBOn0kEJuvCDQ//k5+cI0+1nNmN2WeZ/oU2ZnXF0lnoBE01Mv7VW7CFv8mIgBiSwQQyYEAEAACQGBbCIDYttUfqA0QAAJAAAgkIgBiSwQQyYEAEAACQGBbCIDYttUfqA0QAAJAAAgkIgBiSwQQyYEAEAACQGBbCIDYttUfqA0QAAJAAAgkIgBiSwQQyYEAEAACQGBbCIDYttUfqA0QAAJAAAgkIgBiSwQQyYEAEAACQGBbCIDYttUfqA0QAAJAAAgkIgBiSwQQyYEAEAACQGBbCIDYttUfqA0QAAJAAAgkIgBiSwQQyYEAEAACQGBbCIDYttUfqA0QAAJAAAgkIgBiSwQQyYEAEAACQGBbCIDYttUfqA0QAAJAAAgkIgBiSwQQyYEAEAACQGBbCPwP6j5y3h8aifkAAAAASUVORK5CYII=;" vertex="1" parent="1">
          <mxGeometry x="1394.07" y="710" width="292.22" height="50.54" as="geometry" />
        </mxCell>
        <mxCell id="F5iI7IxURP_fGUeo5Xdc-42" value="" style="shape=image;verticalLabelPosition=bottom;labelBackgroundColor=default;verticalAlign=top;aspect=fixed;imageAspect=0;image=data:image/png,iVBORw0KGgoAAAANSUhEUgAAAhoAAABcCAIAAACnRYspAAAVz0lEQVR4Ae1drZLlNhM1DFw4KJVNlXhggMHCpWYLU+VXMA/yG7gqMMAPMHWfwDDEVYONlnke4IKB/uqbzp5o9OMryfKP7L5gRtfXlqWj7j7dLVnOJv4wAowAI8AIMAKLEcgW18AVMAKMACPACDACE9MJCwEjwAgwAoxABASYTiKAyFUwAowAI8AIMJ2wDDACjAAjwAhEQIDpJAKIXAUjwAgwAowA0wnLACPACDACjEAEBJhOIoDIVTACjAAjwAgwnbAMMAKMACPACERAgOkkAohcBSPACDACjADTCcsAI8AIMAKMQAQEmE4igMhVMAKMACPACDCdsAwwAowAI8AIREDgMZ28vLx88fl8+/bt5eUlQtO4CkaAEWAEGIGVEfjnn3++ffvmY+O/vL6+Ghv1mE66rss8P7/88ovxZnyQEWAEGAFG4DgIvL29PT09eRr47Pv378YurEInnz59ent7M96PDzICjAAjwAgcBIHX19effvrpuHTy9PT0999/HwQsbgYjcEoEbrdb/v4ZhuGUHeRObYbAX3/95RugxIlO/vzzzw062fd9/v65jqoMw1DXdVEU1HH8reu6bdtxHKfTfaqqKoqibdvgng3DUJZlnuenxGcGlnEchRDkUdZ1PXNmuj+N49i2bVVV+cdPWZZN01zHMigj2HWdjklVVV3XKWdG//rHH38giEmGTtq2Pb2qyCNd1zX6i9FSCkKIPM+bppEvTL2MXgshvPRhGIamafI8B0p936eOhlf7i6JA389HJ23b5nkO8UBPlYIQoizLi3gSXdcVRTGPiRBiVWFIj06qqpKFZlV0vBR4jZNl4pR7PVNeW2LW6KatTl03iDWrqqrruv/4aZqGojf9qjzPbbc45fGmaWQJOZOOUAZP7l2WZeLjR//13KQyjqPsPVD3P0Lyb5xKP+V5vpJ3lRKdKP4mQXMmVVFMW1mWsmKQq0Wpra7r6rouy1I3nZCYEzhltt7JsDwsCyEulfeQ01wEzml0RNYIIURRFHpSaxxHYzQvhFiSNVV08zhfm6ZR1ISyFIr6931fVRXOFEKswShHp5O+75ummQniTqMqioDKiZo8z2c0wag85LKtITFKO1f9Cul/yBm2E1ZSm1V7vbBy2eaeiU6gES4prGEYcL4sGzN6tBD2XS5XxloI8TDdjUvWCNmPRScUf+TvHwrWZFEwlk9JJ3LoWpblQ0m1KU/qxnQhnaTe/Yfjrp9wu910NTmBjshG0NFJ0qM0QuY0jKLwpUsKi1YuQEKiQ3EsOqnrGl3VCwp8dMIJVEUxCjII7r273+9G47uGD6I0eL2vxh7pgmE8UhTF/X5fr20HrNkmA+5SdMBOTdPUti0Nsa8w40JZQs6R/FSMoQsyyiVZlhVFEXfEj04nmHql9LduX1JXFWU4h2FAH13iEvly294EvvXIde5bBhSyOXhYPmuW/OFYwIVXIEpdRyAGZA28uoNrZUyim9GHQxP3BDl7QWltZaZEv53spAIKIYR+5pIjx6ITmmGu67ppmr7v9RlUXTi8ZGsJUttcC0EJk3ibQdlgyfka+OjDDU0wFs63VNodVWOai1BKWkeMEUae546hp+6SEya6bXGHet8zlaWtWZa5aLcRh5PTycNx0u1L0qqi9HcYBlhJFxFRLp+myZYvDiMnvf6Nj2C4m6ahJ7OU5Y/0Nc/zuq7TNRBRUAVWECEUktYRm4fkGHMbvfIsyxLFRM9AVFXlIj9G8WA6+bCAOl2xMEoA/A6aVXsYwBorQXwDa0KFFK0tdMBx9tUIyBUOQnLkxaAQgERNJw2c0a2mDI/LyNroxJGNXG6x5TkKGu58oFxIsuF+uWMfj5Xsetho2JdzqIrSX6V3tCBSOefhV+URNgDl6MU8rH/LEwAI08kM7PBYaT4WoGHomU4ABQouc9czmO/yk06N7iNrzBlG51Smk10Ew3xT3RBkWeYr93LGDMoTUI+5idseBSBMJzPAk+OJBUsADaPvbnRm7rLXT0a3enl0klz6V89jCyG8EhhK5LoGAkwne6mJet++76H/SuHho0lKXbpBcVc/pap9v6IjTCe2gUCaC5wB0CBF+MlWyZGP26JtR2uoe/QES3KY6HNIjgjIgzuOI+1FtFLqm+lERnvP8gyd+AYoukFhOtlzaFe7t5Lmovvoo5+c6VQA0y2p+xbRtqnE6E/wKW2O/lUf1gN2gekk+rgHVhiRTmz5geR8fKhQci0PFALPyzDQ8jpAgHaO6IQgwRbCtIrPHSdABDTItfJKE7nfbqUz9RDNN9O1UsOUaplOFEB2+2qb8wh4eNWoQlmWJWeUYRmTa/kGYoQ0jrLIAqDBgKYenSwBU0cjQKGWNCDKtbpGR1+UFaWdTCdRYIxTiS40ZBF8o1qjCh3TnZkHDh1hOlGAwu4JeiIUoDGdIBkIKKggB3MKsAf8qk/CH3ZlDdPJgeSn73vdFgQs5tMr4bmTAw1zjKbA89Atoz76l41O9EmXFEMTPdN12F4wncRQ7nh13O93PP5dFMXtdvOt25Y0091Y35q3Px+W0RadDMNA79BKKxW+EElbmouqBWhwya9JJ0anHsupFw7BlpcbVxPoY0qvOq6lT9u2K63gsnWf6cSGTKrHjc8rZVmmZNiT6B4so0wnXdfR69/xK8Ve9D4l38RgEjjIjUSay5Y9l2EhRtFNj1zhWcvG0CRF8dAHVNkNhN7GaDyNVGOzl1EynZxNm4y+TJZlG/spUWCFhhCdGF/sCh8chTO93liHEeNri1wBGgC5IJ0YN8RM0aOapkkf0CzL8Cxa27Y///wzxlre1A4HiVQ26D7Tia6waR8xCl+KmS5ZkSgigXrgtQV1XXddRy8FUjru8jah5EYaafSZGTUFB8WTTa7LAQ3uuk4HAfY3oMIdL7E9P0AOFlIRnz9/LstScRlpdTW0hibw5UA/er+YTqJDumeFMDeyDGVZZvNk92yrw71hFORCXde2mRIlv3GyF59gMkAIMbM9O7CCDFwqOsHEErovhEhU/qdpsml03/fgEjH74nddKdZjFKYTB6uWzilY8ANdOuwiEBdQFctYFIWNSFCbojxZlqWYLkd35MLDNBedrIB21uhkHMe+76WJ5zrPc73vZVnOUK8M7zHLOjuSardtS52d5xLqlKIULpeEocF0EobbEa8yOjIpPm4CcGXrMJPewflU0Dn1BIyCwX2IgwwamZ5TRid6N2UXimYLEk1wyfJsoxN0X18pLl+OsqIUK5kFphMAnnwBEibrVdIahR557XanP7y2kvJsJjGOaS5qD0CDGFyTTqj7eZ4n7UwgJMVoygX32XVdKdaYT2U62cwmrHsj7CwrS9tDT3bdNi2unSzj/FSB8Sa6EnoRkrHOHQ+iOy7OwUXohJJd9NSR/FfZhp3UId1ZNCWqkLXbtlLcJqh6VdH9DKYTG/gpHdddj8Nuw+AF6+12C3uW0wiIY1rAq4UbnIw1r46MeBE6mUfe6F05Ajhf88a/6hwARvF1FvW8WfSonelkY/GIf7v7/a5bkDUi2fhNX7NGHZMUrQkG113z9Y5Hd0LXHLdodWPhE+zvBitlo7X+R0UzdOK7QMu45tiXk360y/yf6cSMS0JHkQmB2jCXTNOk66G7RT7O6GNNjkuai5rNdILhM8YoaYkBBADaTQXfTJdNNsLqAcJKgelEASSxr3oAy1xCQ6jTifwscRLD7Jvmok4xnciDaxSDhHREV3Cik7Au6LKRZVnEJDDTiSx7iZX1cD5MyBLrtltzjXqYED4BaS4CRjcZ10x2ERq6jpA5dl8T5SZua51lFOPgLfh02QiuythhphMjLAkc1HezT3FuYD2gjXoYN7Rfr/HTNCHL4UsGusnwrWHVfm1fuQ4IPZXy8JHY7Zuq39EoxsGPpq4dqzGd6COYwBFsK4uMatwptQQgeNREmx4q+xo9qmaf37EyLSCc0q3nxekExAxloUISKmOLrsLG1EgnEX0sppN97MXCuypi4T5Pu/C+CV1uoxPf9TC7dJnGN+zlHEwnypBhQwGFTiKaUeWOEb8al2PFjU4i4sB0EnHoN6pK4ZKkH/q1Qda2bVEUeZ5XVRWWlLDRyfGpF+uRwjxQphNFqGwWOYn93GxvwwuTDcV0EL8ynfznZ4TBqghcQl/lyF0IEXFVxnFAUJY+hz3SbKOTgwsM0ly0T5/8vLdjWaeTqqqM1ya9N6K7uGKLmv+sxo9SEvkufUA5OnEf/bkzdWQPbh3mOuP/m8IlSeRtfHsp9/GH1mcBDlSidGJrNqCIWEhCd+ilHfRWqKIowvwn3W4QjAFTU77yvPx8Y+PDxo6jkw/DoSMbBuuHShP5IqeAvbaY7rqO9vFOwhvVh5g03zenZ7PLB+dgW7MjsgiqOr7uGH2LgDW+NqFKgk6MHBA2dsaqAnw1m8nkuRMbMsc6Li/w8OKSaZoodxRRaFaFxqb5vvpjs8vHpxP5/awBZbAFCrZKfCFdddz1ymX/CX2hgm+MYhOqJOjEKMlhaTqmkw9ipovFwVXiQ+tDvyCfTuvlfQ0iyVDqdOI7hY4JbdkSpQJCqKRMxmnnRHXEaPtoNH0DFN1uUD1J0Ims/hDmsJYbcQiryiiiHJ0YYTnQQflxRd+4hLpBMhRRaFZFxyjxAfssGY1RKiAEI3wmOjFKQhgN2KpK5clfvf1hkqzXk2VZWKBjFFGmEyMsRzkoP64YxiWwL74O3V4QGGnAd+LEuAVk3P0k9sJn/r4YbrixwauA5m+0wa9G20f98qIBIyZUTypxmz6HFBZnGyH1zRzODD3TyQw4+/8E25rnuW+Oi1qPxKtvsmivzkNzhBB5nkdczBMQ4uwFQvB9jaYzFaOp9BrCL1Mjlb2EWZ53VKpKYouEaZr0fFcAnRgXTAfUowyT/JXpREbjcXlL+YM6hQW21Bk8wxHGRkZEIlal1w/NWRKDoxLZfHi5tHrDlCNbSoJy65mvG9PJ+P6Zac+Sn+BYyIMY8F444yxaQD0zfdlAGGANgIavGhqVYomW6YAwneiYGI50XZfnOYWKQoi4Y2C4n7QD4BIugT8SxTEfx7EoCoBQFMVKWoRbhD0PL++fCN2LuBE3Xh9L8dPtdjOO4C4HN6OTpmnkBWNrBEDGqCLPc1+pM2Z4ojwSv6VZ0NHwTV/rtBrFLMhyznQio2EuG1l9iZU330Y6Kvtluf9H1nOyp1FCWl0to4sjYYAEXRhtg0RlLgmrShqTf4uI9uTKj8Mo29AJBkgGwde66djqRyByeZ7XdR2Q5Tcqb5TQxFjzqmZBCVB8lRpgYtSiOwFMJ7oMq0eMFmS9GU7dicDwBxeWS7nRgmRZFjeDBOgh+gGT8DIZE2JCiCiPcBotCK3eRsv3LRhbGN1qYHQUgQww9/NwyS55GGfblHd5U201R0cbEOF1aoDdfQ5J19/lNgENQyElOpFlC4CuZM4A0DRNNuXx9Q7kOm1lYx/R2eDCct9c8YzklvgmH2x9l4/LmuPFKDqAYSvi5MagPMP07oqN2tYoGFsYV0eMjEXyEPdGhA+sdsDWbbIUyRIbxeJvaRYgKoqr5Jge0OP1sM2q0Qxb4eh0MgxD3/dt2yJhLYsFhLiua9rkztbP4OPG7AHa4DsbNt8M3RTiRgsLy/XHpjzrRWmy5ji23wigFxvND9AMp67h6803Rv6V1MTIJSQ5ZVn2fR+F+HU/F8K5hoOlrPkuy9Ix0JQf2EILYz1msaVZkAdaQcMxa6fL7fLgTGkVfT0cnch5/xkTJsuHXFYudzRDRmhwcKYZUeqnG+kehNyvheXltKdLJJq0niWVGWV+xfD9fpdPprYJIcIyJBh6pbC9JVUagK9kKyHtGIuHBVwSHLTtYkll8RNCPHxtwe12M6ptxAkeY/2Ef0SzgBFHQX4WjW43szxhGAYZOkrMxlUKNGyapiPSyUOVcD8hyrjqdgoNWJ5EwmDMaynuGFBwjIjREmPB6PhTY1bySakZCvh5njdNI7Nj13VlWeq6PaNjxg66HJyh/Cggu7SBzokiLTKM7rfWHWRZJiPGgkqTlNiLltXR/Dw6Mo4jvSlHbhKkNK4ZVSRTvmNEs6CAQF/HcdRJoixLxBzDMBj1IvjxNWMz9INHpBPZgVpYjkIn9/tdt1YkPREd8ygGQpZplGOZe2SxUTMVYtWvSycdMXqaEAylMeR/RRl3Y3tmAhQYNeOFcQ8q0QnQ8CoEN7jrOptGrIc8Pc03I4TUd6M8uKfI3IdpG7Mw0x5j/t8GQqws30x7jhidzDd3r1/v93tVVfmPD5UdE5fubTa+4yjKQfc2zJ/ZNM0PDPLy/bPZuqa6rm0mDBZECLGqOSNwbrcbvSmSHtoHwQRb53nMj/nrMAxlWUIYMDob4G/0uyEDcoEeEQt+eukh8tuYhZlm0CjM64UQYj5RPFO/70+Hi058O7DX+RRsRoxO9urIkvuSJV07OpFbSO9uyT9+yrJsmibKPLN8L8cywspL0YkODhm1DegEt+77vq5rmdXy909ZlnVd7yIPe5mFtm11HKqqatt2PTbFQKDAdAIo/AqkPGsnSf3atPnZlHnYkk427+LjG9JrOTaeO3ncrG3PGIaBwoL15k627VDg3S5uFphOFsnNlr5YYEPXvGwvX2zNPnnXvX2I5t3E9S/gEI0w3j5EW39sPe7AdOIBFk6F8mApBX66VIGUJ+LiyxTRY06dpok5dZr+e3fZZc0C00mIBYPybJmXDGnomteAUzm/sc2ymTUHc2ndxKkXT3uyWWA6CVEkdkinaaLnAC5uQbDjyGUdUtIfjlPxOM6Vl+cwnXjTCSzIQbZp8u5ApAvIgqyxTVOkBm5RDS9GQKYry7JdFlNtMcwO92CzwM+dOIiJdgo9DXvxlTx4SP7Kma5xHH/99VfOdJFjcWWvHK/YubhZiB+dyI8R2cq///778/OzZqgTOAAf5OJLhNmCTNNEocnnz5+vPIVGEwZR3kaVgP5bmnh6s/D8/Pzbb7/Z7Lnx+Pfv341oZcaj8kGgaazXePDp6ent7U2uJIkyphyvbEGwe1LcTZCSEAA0EpufX3lhGzYxu3hocm6z8Pb29unTJ6MZnznIdAJbYS7AjF75cROY0SvPmsCMXnwlApnRiC9ONivesY+e3ixsTScvLy9ffD5fv35NLtmF2YIrO2K08yDt03Xl+Axm9MrxGbbUvXJ8dhGz8Pz8/PXrVx8b/+X19dXoBjxOdhkvO9NBCM2Vp9rkFy1c2YyCS65sRsElV/au2CwEGHmmk3/f7xv8xqEA0A94CfYGv/JqLtqh6+KrubBD15W5BK/9vrhZ8LVUTCf/X8MT8KpqX6APfj5tQn5ll5xeuUE7fh98sNZuXv7+ufKDJrS0j82Cr6QxnfgixuczAowAI8AIGBBgOjGAwocYAUaAEWAEfBFgOvFFjM9nBBgBRoARMCDAdGIAhQ8xAowAI8AI+CLAdOKLGJ/PCDACjAAjYEDgf+o9chL+kjCEAAAAAElFTkSuQmCC;" vertex="1" parent="1">
          <mxGeometry x="1402.07" y="764.3299999999999" width="265.22" height="45.35" as="geometry" />
        </mxCell>
        <mxCell id="F5iI7IxURP_fGUeo5Xdc-43" value="&lt;font style=&quot;font-size: 20px;&quot;&gt;Col&lt;/font&gt;" style="text;html=1;align=center;verticalAlign=middle;whiteSpace=wrap;rounded=0;" vertex="1" parent="1">
          <mxGeometry x="1692.07" y="713" width="60" height="30" as="geometry" />
        </mxCell>
        <mxCell id="F5iI7IxURP_fGUeo5Xdc-44" value="&lt;font style=&quot;font-size: 20px;&quot;&gt;Value&lt;/font&gt;" style="text;html=1;align=center;verticalAlign=middle;whiteSpace=wrap;rounded=0;" vertex="1" parent="1">
          <mxGeometry x="1692.07" y="768" width="60" height="30" as="geometry" />
        </mxCell>
      </root>
    </mxGraphModel>
  </diagram>
</mxfile>
